<svg width="128" height="127" viewBox="0 0 128 127" fill="none" xmlns="http://www.w3.org/2000/svg">
<path d="M93.344 2.24268C60.492 5.48907 31.8032 22.3523 12.8884 47.2412V124.433H93.344V2.24268Z" fill="white" stroke="#010101" stroke-width="4" stroke-miterlimit="10"/>
<path d="M114.069 41.8306H70.0853V124.343H114.069V41.8306Z" fill="white" stroke="#010101" stroke-width="4" stroke-miterlimit="10"/>
<path d="M126.196 124.343L0.761108 124.433" stroke="#010101" stroke-width="4" stroke-miterlimit="10"/>
<path d="M99.6791 109.013H84.3845V124.433H99.6791V109.013Z" fill="white" stroke="#010101" stroke-width="4" stroke-miterlimit="10"/>
<path d="M35.8759 101.348H26.1923V110.997H35.8759V101.348Z" fill="white" stroke="#010101" stroke-width="4" stroke-miterlimit="10"/>
<path d="M57.5961 101.348H47.9125V110.997H57.5961V101.348Z" fill="white" stroke="#010101" stroke-width="4" stroke-miterlimit="10"/>
<path d="M35.8759 79.7051H26.1923V89.3541H35.8759V79.7051Z" fill="white" stroke="#010101" stroke-width="4" stroke-miterlimit="10"/>
<path d="M57.5961 79.7051H47.9125V89.3541H57.5961V79.7051Z" fill="white" stroke="#010101" stroke-width="4" stroke-miterlimit="10"/>
<path d="M35.8759 58.0625H26.1923V67.7115H35.8759V58.0625Z" fill="white" stroke="#010101" stroke-width="4" stroke-miterlimit="10"/>
<path d="M57.5961 58.0625H47.9125V67.7115H57.5961V58.0625Z" fill="white" stroke="#010101" stroke-width="4" stroke-miterlimit="10"/>
<path d="M80.4929 54.185L93.1631 73.9339L126.106 22.2622" stroke="#010101" stroke-width="4" stroke-miterlimit="10"/>
</svg>
