<svg id="Layer_1" data-name="Layer 1" xmlns="http://www.w3.org/2000/svg" viewBox="0 0 90 90"><defs><style>.cls-1,.cls-2,.cls-3{fill:red;}.cls-2{font-size:6.73px;}.cls-2,.cls-3{font-family:Gotham-Bold, Gotham;font-weight:700;}.cls-3{font-size:6.73px;}</style></defs><path class="cls-1" d="M12.28,45.49a2,2,0,1,1-2-2A2,2,0,0,1,12.28,45.49Z"/><path class="cls-1" d="M78.71,45.49a2,2,0,1,0,2-2A2,2,0,0,0,78.71,45.49Z"/><text class="cls-2" transform="matrix(0.62, -0.79, 0.79, 0.62, 18.25, 26.71)">P</text><text class="cls-2" transform="translate(20.72 23.43) rotate(-43.4)">M</text><text class="cls-2" transform="matrix(0.82, -0.57, 0.57, 0.82, 24.67, 19.72)">T</text><text class="cls-2" transform="translate(28.11 17.36) rotate(-29.77)"> </text><text class="cls-2" transform="translate(29.67 16.39) rotate(-24.34)">P</text><text class="cls-2" transform="matrix(0.96, -0.29, 0.29, 0.96, 33.15, 14.74)">A</text><text class="cls-2" transform="translate(37.71 13.41) rotate(-11.1)">I</text><text class="cls-2" transform="translate(39.64 12.93) rotate(-4.85)">N</text><text class="cls-2" transform="matrix(1, 0.03, -0.03, 1, 44.82, 12.58)"> </text><text class="cls-2" transform="translate(46.61 12.56) rotate(6.72)">S</text><text class="cls-2" transform="matrix(0.97, 0.26, -0.26, 0.97, 50.75, 13.01)">U</text><text class="cls-2" transform="translate(55.52 14.28) rotate(22.97)">P</text><text class="cls-2" transform="matrix(0.86, 0.51, -0.51, 0.86, 59.39, 15.9)">P</text><text class="cls-2" transform="matrix(0.78, 0.62, -0.62, 0.78, 62.84, 17.83)">O</text><text class="cls-2" transform="matrix(0.68, 0.73, -0.73, 0.68, 66.91, 21.06)">R</text><text class="cls-2" transform="matrix(0.59, 0.81, -0.81, 0.59, 69.82, 24.16)">T</text><text class="cls-3" transform="translate(12.44 63.21) rotate(57.9)">C</text><text class="cls-3" transform="translate(15.42 67.87) rotate(49.35)">B</text><text class="cls-3" transform="matrix(0.76, 0.65, -0.65, 0.76, 18.88, 71.88)">D</text><text class="cls-3" transform="matrix(0.82, 0.57, -0.57, 0.82, 23, 75.32)"> </text><text class="cls-3" transform="matrix(0.86, 0.5, -0.5, 0.86, 24.5, 76.43)">T</text><text class="cls-3" transform="matrix(0.93, 0.38, -0.38, 0.93, 28.53, 78.82)">O</text><text class="cls-3" transform="translate(34.28 81.07) rotate(13.41)">P</text><text class="cls-3" transform="matrix(0.99, 0.14, -0.14, 0.99, 38.62, 82.05)">I</text><text class="cls-3" transform="translate(40.94 82.45) rotate(2.45)">C</text><text class="cls-3" transform="matrix(1, -0.09, 0.09, 1, 45.8, 82.68)">A</text><text class="cls-3" transform="translate(51.31 82.1) rotate(-13.09)">L</text><text class="cls-3" transform="translate(55.17 81.17) rotate(-17.54)"> </text><text class="cls-3" transform="matrix(0.92, -0.39, 0.39, 0.92, 57.14, 80.62)">C</text><text class="cls-3" transform="translate(61.85 78.61) rotate(-30.87)">R</text><text class="cls-3" transform="translate(66.4 75.83) rotate(-38.91)">E</text><text class="cls-3" transform="matrix(0.69, -0.73, 0.73, 0.69, 70.02, 72.94)">A</text><text class="cls-3" transform="translate(73.87 68.84) rotate(-55.84)">M</text><path class="cls-1" d="M34.65,38.31H32.83V25.4h2.54l2.08,7.73V25.4h1.81V38.31H37.18L34.65,29Z"/><path class="cls-1" d="M43.72,25.26c2,0,3.08,1.18,3.08,3.24v6.71c0,2.06-1.09,3.24-3.08,3.24s-3.08-1.18-3.08-3.24V28.5C40.64,26.44,41.73,25.26,43.72,25.26Zm0,11.35c.64,0,1.05-.35,1.05-1.27v-7c0-.92-.41-1.27-1.05-1.27s-1,.35-1,1.27v7C42.67,36.26,43.07,36.61,43.72,36.61Z"/><path class="cls-1" d="M51.59,38.31H48.81L47.37,25.4h2l1.09,10.18,1-10.18h2l1,10.25L55.42,25.4h1.77L55.76,38.31h-2.7l-.73-6.88Z"/><path class="cls-1" d="M21.15,54.86l-.35-2.34H18.31L18,54.86H16.1L18.16,42h3l2.06,12.9Zm-.63-4.09-1-6.52-1,6.52Z"/><path class="cls-1" d="M28.37,42h1.87l-2,12.9h-3l-2-12.9h2.05l1.55,10.53Z"/><path class="cls-1" d="M35,54.86l-.35-2.34H32.12l-.35,2.34H29.9L32,42h3L37,54.86Zm-.62-4.09-1-6.52-1,6.52Z"/><path class="cls-1" d="M40.06,42v12.9H38V42Z"/><path class="cls-1" d="M43.65,42V53H47v1.84H41.63V42Z"/><path class="cls-1" d="M52.48,54.86l-.35-2.34H49.65l-.36,2.34H47.43L49.5,42h3l2.07,12.9Zm-.62-4.09-1-6.52-1,6.52Z"/><path class="cls-1" d="M61.26,44.93v.46A2.54,2.54,0,0,1,60,48c1.09.42,1.51,1.4,1.51,2.76v1a2.74,2.74,0,0,1-3.08,3.06H55.19V42h3.06C60.35,42,61.26,42.94,61.26,44.93Zm-4,2.28H58c.76,0,1.22-.33,1.22-1.36v-.72c0-.92-.31-1.33-1-1.33h-1Zm0,5.81h1.16c.68,0,1-.31,1-1.27V50.62c0-1.19-.38-1.56-1.31-1.56h-.9Z"/><path class="cls-1" d="M64.43,42V53h3.33v1.84H62.4V42Z"/><path class="cls-1" d="M73.18,47.4v1.84H70.4V53h3.5v1.84H68.37V42H73.9V43.8H70.4v3.6Z"/><path class="cls-1" d="M45,89.5A44.5,44.5,0,1,1,89.5,45,44.55,44.55,0,0,1,45,89.5ZM45,3.26A41.74,41.74,0,1,0,86.74,45,41.78,41.78,0,0,0,45,3.26Z"/></svg>