<svg id="Layer_1" data-name="Layer 1" xmlns="http://www.w3.org/2000/svg" viewBox="0 0 90 90"><path d="M21.49,37.27c2.15,0,3.26,1.29,3.26,3.55v.45H22.66v-.59c0-1-.41-1.39-1.11-1.39s-1.11.38-1.11,1.39c0,2.91,4.33,3.45,4.33,7.49,0,2.26-1.13,3.55-3.31,3.55s-3.3-1.29-3.3-3.55V47.3h2.09v1c0,1,.45,1.37,1.15,1.37s1.15-.36,1.15-1.37c0-2.91-4.33-3.45-4.33-7.49C18.22,38.56,19.33,37.27,21.49,37.27Z"/><path d="M29.07,48.33c0,1,.45,1.37,1.15,1.37s1.15-.36,1.15-1.37V37.43h2.1V48.19c0,2.26-1.13,3.55-3.31,3.55s-3.31-1.29-3.31-3.55V37.43h2.22Z"/><path d="M38.52,37.43V49.54h3.65v2H36.3V37.43Z"/><path d="M48.22,43.71v2H45.36v5.83H43.14V37.43H49v2H45.36v4.26Z"/><path d="M54.72,51.56,54.34,49H51.61l-.38,2.56h-2l2.26-14.13H54.7L57,51.56ZM54,47.08,53,39.94,51.9,47.08Z"/><path d="M64.31,37.43v2H62V51.56H59.77V39.45H57.45v-2Z"/><path d="M71.15,43.39v2H68.1v4.14h3.84v2H65.88V37.43h6.06v2H68.1v3.94Z"/><path d="M45,.5A44.5,44.5,0,1,0,89.5,45,44.55,44.55,0,0,0,45,.5Zm0,86.24A41.61,41.61,0,0,1,16.49,75.46L33.58,58.37l-1.95-1.95L14.54,73.51a41.72,41.72,0,0,1,59-59L57.3,30.75l2,2L75.46,16.49A41.72,41.72,0,0,1,45,86.74Z"/><path d="M45,.5A44.5,44.5,0,1,0,89.5,45,44.55,44.55,0,0,0,45,.5Zm0,86.24A41.74,41.74,0,1,1,86.74,45,41.78,41.78,0,0,1,45,86.74Z"/></svg>