<svg id="Layer_1" data-name="Layer 1" xmlns="http://www.w3.org/2000/svg" viewBox="0 0 90 90"><path d="M45,.5A44.5,44.5,0,1,0,89.5,45,44.55,44.55,0,0,0,45,.5Zm0,86.24A41.74,41.74,0,1,1,86.74,45,41.78,41.78,0,0,1,45,86.74Z"/><path d="M56.84,62.31a2.42,2.42,0,1,0,2.42-2.41A2.42,2.42,0,0,0,56.84,62.31Z"/><rect x="33.28" y="45.31" width="2.76" height="9.57" transform="translate(-26.06 55.06) rotate(-60)"/><path d="M60.52,33.91a7.69,7.69,0,0,0-4.13-6.37l4-6.83L58,19.33,60.45,15l-8.29-4.79-2.5,4.34-2.39-1.38L30.37,42.44,43.44,50l5.32-9.22a7.63,7.63,0,0,0,3.36,1.17A13.05,13.05,0,0,1,41,61.82H30.8a9.24,9.24,0,0,0-9.23,9.23v1.38h40.7a6.34,6.34,0,0,0,6.09-5A31.11,31.11,0,0,0,69,60.29C69,50.15,66.39,41.4,61.4,35,61.11,34.61,60.82,34.26,60.52,33.91ZM46.7,38.82l-4.27,7.4-8.3-4.79L48.28,16.94l2.39,1.38L53.17,14l3.51,2-2.5,4.33,2.39,1.38-2.89,5a7,7,0,0,0-.8,0,7.65,7.65,0,0,0-7.64,7.65A7.57,7.57,0,0,0,46.7,38.82Zm6.18.4a4.89,4.89,0,1,1,4.89-4.88A4.89,4.89,0,0,1,52.88,39.22ZM65.67,66.78a3.55,3.55,0,0,1-3.4,2.89H24.48a6.48,6.48,0,0,1,6.32-5.09H41A15.82,15.82,0,0,0,55.12,41.65a7.7,7.7,0,0,0,4.72-4.14c4.2,5.85,6.43,13.7,6.43,22.78A28.56,28.56,0,0,1,65.67,66.78Z"/></svg>