<svg id="Layer_1" data-name="Layer 1" xmlns="http://www.w3.org/2000/svg" viewBox="0 0 90 90"><path d="M45,.5A44.5,44.5,0,1,0,89.5,45,44.55,44.55,0,0,0,45,.5Zm0,86.24A41.74,41.74,0,1,1,86.74,45,41.78,41.78,0,0,1,45,86.74Z"/><path d="M46,14l-1-1.18L44,14c-7.15,8.15-13,19.35-14.9,24.7a24.76,24.76,0,0,0-1.64,8.78A17.59,17.59,0,0,0,43.62,65V78.19h2.76V65a17.6,17.6,0,0,0,16.2-17.51,24.76,24.76,0,0,0-1.65-8.78C59.05,33.32,53.18,22.12,46,14ZM43.62,35.44l-6.69-6.69a91.44,91.44,0,0,1,6.69-10Zm0,3.9V51.21L31.76,39.35a65.08,65.08,0,0,1,3.77-8.1Zm2.76-20.61A87.84,87.84,0,0,1,58.25,39.36L46.38,51.22ZM30.19,47.45a20.32,20.32,0,0,1,.64-5.12L43.62,55.11v7.08A14.83,14.83,0,0,1,30.19,47.45ZM46.38,62.19V55.12L59.17,42.33a19.92,19.92,0,0,1,.65,5.12A14.82,14.82,0,0,1,46.38,62.19Z"/></svg>