<svg id="Layer_1" data-name="Layer 1" xmlns="http://www.w3.org/2000/svg" viewBox="0 0 90 90"><path d="M14.93,31.14,15.54,30a1,1,0,0,0,1.4-.54.85.85,0,0,0-.22-1.23c-.41-.22-.67-.09-1.2.6-.9,1.22-1.59,1.54-2.58,1a1.88,1.88,0,0,1-.49-2.71A1.88,1.88,0,0,1,15,26.07l-.59,1.07a.85.85,0,0,0-1.15.48c-.28.51-.19.9.16,1.09s.62.13,1.18-.6c.84-1.15,1.53-1.6,2.59-1A2,2,0,0,1,17.78,30C17,31.36,16,31.64,14.93,31.14Z"/><path d="M16.62,25.89l-.05,0a2.9,2.9,0,0,1-.42-4.22,2.85,2.85,0,0,1,4.19-.48l.05,0a2.88,2.88,0,0,1,.44,4.25A2.85,2.85,0,0,1,16.62,25.89Zm2.92-3.61-.06-.05a1.65,1.65,0,1,0-2,2.54l0,0a1.65,1.65,0,1,0,2.05-2.53Z"/><path d="M21.72,20.83l-2.29-2.74,1-.86,2.23,2.68c.63.75,1.12.9,1.74.38s.63-1-.06-1.83l-2.2-2.65,1-.85,2.26,2.7a2.21,2.21,0,0,1-.35,3.45A2.16,2.16,0,0,1,21.72,20.83Z"/><path d="M25,13.77l1.82-1c1.21-.68,2.25-.62,2.85.43v0a1.52,1.52,0,0,1-.28,2l2.57,1.41-1.23.69L28.38,16l-.5.28,1.12,2-1.15.65Zm3.12,1.33c.58-.33.73-.73.46-1.22l0,0c-.3-.53-.71-.53-1.27-.21l-.64.36.82,1.47Z"/><path d="M31,13.8l0-.06a2.85,2.85,0,0,1,1.74-3.8,2.32,2.32,0,0,1,3.16,1.14l-1.28.46a1.12,1.12,0,0,0-1.52-.61c-.87.31-1.19,1.19-.78,2.33l0,.06c.41,1.14,1.17,1.62,2.08,1.3a1.23,1.23,0,0,0,.89-1.51l1.23-.44a2.38,2.38,0,0,1-1.75,2.95A2.71,2.71,0,0,1,31,13.8Z"/><path d="M36.9,8.8l3.76-.65.18,1-2.46.43.23,1.34,2-.34.16,1-2,.34L39,13.33l2.59-.44.18,1-3.9.67Z"/><path d="M42.36,8l1.92,0c2,0,3.09,1.06,3.12,2.81v.07a2.74,2.74,0,0,1-3,3l-1.91,0Zm2,4.79c1.18,0,1.72-.69,1.7-1.9v-.07C46,9.62,45.47,9,44.23,9h-.52l.06,3.79Z"/><path d="M51.59,8.5l3.66.83-.23,1-2.37-.54-.34,1.51,1.87.43-.22,1-1.88-.42-.5,2.21-1.29-.3Z"/><path d="M56.76,9.8l2,.78c1.28.51,1.89,1.36,1.44,2.48v0a1.54,1.54,0,0,1-1.7,1L59,17l-1.3-.52-.47-2.62-.53-.21-.84,2.1-1.22-.49Zm.92,3.27c.61.24,1,.11,1.24-.42v0c.22-.55,0-.88-.63-1.11l-.69-.28L57,12.79Z"/><path d="M60.62,14.56l0-.06a2.9,2.9,0,0,1,4.14-.91,2.86,2.86,0,0,1,1,4.11l0,.05a3,3,0,0,1-5.12-3.19ZM64.56,17l0-.06a1.65,1.65,0,1,0-2.77-1.73l0,0a1.7,1.7,0,0,0,.36,2.51A1.68,1.68,0,0,0,64.56,17Z"/><path d="M68.86,16.5l1.25,1.23-1.6,3.55L72,19.64l1.22,1.21L69.14,25l-.94-.93,2.9-2.92-4,1.78-.31-.31,1.74-4.07-2.9,2.93-.84-.84Z"/><path d="M76.69,25.79l.86,1.5-4.12,4.58-.69-1.2.93-1L72.6,27.83l-1.32.3-.62-1.08Zm-3.12,1.82L74.34,29,76.15,27Z"/><path d="M10.75,46.41h.07A2.88,2.88,0,0,1,14.16,49a2.32,2.32,0,0,1-1.72,2.84l-.16-1.31a1.13,1.13,0,0,0,.84-1.38c-.13-1-1-1.51-2.15-1.36h-.06c-1.12.14-1.87.72-1.73,1.86a1.24,1.24,0,0,0,1.4,1.25l-.16-1.31,1-.12.33,2.61-.62.08a2.49,2.49,0,0,1-2.93-2.41A2.78,2.78,0,0,1,10.75,46.41Z"/><path d="M14.54,52.42l.58,1.65-3,2.5,3.89.06.57,1.63L11.06,60.2,10.63,59l3.88-1.37-4.42-.16L10,57l3.33-2.91L9.41,55.48,9,54.36Z"/><path d="M17.17,59.22l1,1.74c.73,1.23.6,2.25-.46,2.88l0,0c-1.07.63-2,.19-2.69-1l-.38-.64L12.8,63.34l-.67-1.13Zm-1.4,3.14a.85.85,0,0,0,1.28.4h0c.53-.32.56-.76.24-1.3L17,60.87l-1.54.92Z"/><path d="M18.13,66.26l.05,0a2.84,2.84,0,0,1,4.17.09,2.32,2.32,0,0,1,.21,3.35l-.92-1A1.13,1.13,0,0,0,21.59,67c-.63-.68-1.56-.62-2.45.21l-.05,0c-.88.83-1,1.72-.36,2.43a1.23,1.23,0,0,0,1.74.21l.88,1a2.38,2.38,0,0,1-3.4-.43A2.73,2.73,0,0,1,18.13,66.26Z"/><path d="M24.49,68.57l3,2.33-.63.82-2-1.53-.83,1.08,1.58,1.23-.6.76L23.47,72l-.89,1.15,2.08,1.61-.63.82L20.91,73.2Z"/><path d="M28.12,71.32l1.84,1c1.21.67,1.71,1.59,1.12,2.65v0a1.54,1.54,0,0,1-1.81.78l.15,2.93L28.18,78,28,75.38l-.5-.28-1.09,2-1.16-.63Zm.51,3.35c.58.32,1,.24,1.28-.25l0,0c.29-.52.07-.88-.49-1.19l-.65-.36L28,74.31Z"/><path d="M33.05,74.94l-1.48-.56.37-1L36.15,75l-.36,1-1.48-.56-1.7,4.52-1.25-.47Z"/><path d="M37,75.15l1.29.31-1.38,5.7-1.29-.32Z"/><path d="M39.66,75.78l3.74.44-.12,1L40.86,77l-.18,1.54,1.92.22-.12,1-1.91-.22-.26,2.25L39,81.6Z"/><path d="M44.17,76.18l1.33,0-.09,5.86-1.34,0Z"/><path d="M46.86,76.19l3.79-.44.12,1-2.48.29.15,1.36,2-.23.11,1-2,.23.17,1.45,2.62-.31.12,1L47.53,82Z"/><path d="M51.46,75.61l1.84-.54c2-.57,3.26.22,3.75,1.9l0,.06a2.74,2.74,0,0,1-2.14,3.67l-1.83.53Zm3.14,4.11a1.61,1.61,0,0,0,1.15-2.28l0-.07c-.34-1.15-1-1.63-2.2-1.29l-.51.15,1.06,3.64Z"/><path d="M58.64,73.11l3.29-1.82.5.91L60.3,73.38l.75,1.35,1.69-.94.48.88-1.68.93,1.1,2-1.16.64Z"/><path d="M63.16,70.37l1.38-1,5,3.52-1.1.83-1.11-.79-1.69,1.28.47,1.28-1,.75Zm2.19,2.88,1.23-.94-2.14-1.55Z"/><path d="M68,70.41l0,0a2.84,2.84,0,0,1-.18-4.16,2.31,2.31,0,0,1,3.33-.43l-.93,1a1.12,1.12,0,0,0-1.63.16c-.64.67-.52,1.6.37,2.43l0,0c.89.83,1.78.91,2.44.21a1.24,1.24,0,0,0,.11-1.75l.89-1a2.39,2.39,0,0,1-.2,3.42A2.72,2.72,0,0,1,68,70.41Z"/><path d="M70,63.61l.77-1.09,4.77,3.4L74.81,67Z"/><path d="M71.72,61.19,72.34,60l4.25,2.28,1.13-2.1.91.49L76.88,64Z"/><path d="M73.63,57.41l.51-1.24,5.42,2.22-.5,1.23Z"/><path d="M75.93,54.07l-.41,1.53-1-.27L75.7,51l1,.27-.42,1.53L80.94,54l-.35,1.29Z"/><path d="M79.21,49.71l-3.54,1.52.17-1.44,2.37-.92-2.09-1.42.15-1.28,3.1,2.21,2.5.3L81.72,50Z"/><path d="M13.94,38.27a2.41,2.41,0,1,1-2.41-2.41A2.41,2.41,0,0,1,13.94,38.27Z"/><path d="M76.06,38.27a2.41,2.41,0,1,0,2.41-2.41A2.41,2.41,0,0,0,76.06,38.27Z"/><path d="M45,89.5A44.5,44.5,0,1,1,89.5,45,44.55,44.55,0,0,1,45,89.5ZM45,3.26A41.74,41.74,0,1,0,86.74,45,41.78,41.78,0,0,0,45,3.26Z"/><path d="M61.43,37.05H59.72v7.82h1.71c1.16,0,1.78-.53,1.78-2.18V39.23C63.21,37.58,62.59,37.05,61.43,37.05Z"/><path d="M45,17.72A27.28,27.28,0,1,0,72.28,45,27.28,27.28,0,0,0,45,17.72ZM35.42,41.54H32V39.06c0-1.64-.73-2.27-1.88-2.27s-1.88.63-1.88,2.27V51.53c0,1.64.72,2.24,1.88,2.24S32,53.17,32,51.53V47.27H30.35V44h5.07v7.31c0,3.7-1.84,5.81-5.4,5.81S24.61,55,24.61,51.29v-12c0-3.69,1.85-5.8,5.41-5.8s5.4,2.11,5.4,5.8ZM53.29,56.83H49.86V40.28l-2.5,16.55H43.93l-2.7-16.31V56.83H38.06V33.76h5l2.67,16.38,2.47-16.38h5Zm8.14-8.67H59.72v8.67H56.09V33.76h5.34c3.63,0,5.41,2,5.41,5.7v3C66.84,46.15,65.06,48.16,61.43,48.16Z"/></svg>