<svg id="Layer_1" data-name="Layer 1" xmlns="http://www.w3.org/2000/svg" viewBox="0 0 90 90"><path d="M9.12,35.69l.49-1.59c.34-1.12,1-1.61,2-1.31h0c1,.29,1.23,1.11.91,2.16l-.18.59,1.68.5-.32,1Zm2.68-.9a.7.7,0,0,0-.47-1h0c-.49-.14-.77.08-.92.58l-.16.52,1.41.43Z"/><path d="M10.64,31l.47-1,1.77.84.83-1.74-1.78-.84.47-1,4.35,2.06-.47,1-1.79-.85-.83,1.74,1.79.85-.46,1Z"/><path d="M16.17,26.42,13,26.22l.66-1,2.07.22-1-1.82.59-.88,1.44,2.77,1.72,1.15-.6.91Z"/><path d="M18.24,24.38l.68-.79a.79.79,0,0,0,1.21-.19.68.68,0,0,0,0-1c-.29-.25-.52-.19-1.07.28-.93.82-1.54,1-2.24.35a1.54,1.54,0,0,1,.07-2.26,1.54,1.54,0,0,1,2.26-.42l-.65.76a.7.7,0,0,0-1,.19c-.31.36-.3.68-.06.9s.48.21,1.05-.28c.87-.78,1.5-1,2.26-.37a1.63,1.63,0,0,1-.05,2.39C19.87,24.92,19,25,18.24,24.38Z"/><path d="M19.4,18.24l.81-.75L23.48,21l-.8.75Z"/><path d="M22.68,18.47l0,0A2.32,2.32,0,0,1,23.12,15a1.89,1.89,0,0,1,2.75.14l-.9.66a.92.92,0,0,0-1.34-.11c-.61.45-.65,1.21-.06,2l0,.05c.59.8,1.31,1,1.95.52a1,1,0,0,0,.34-1.39l.86-.64A2,2,0,0,1,26.08,19,2.22,2.22,0,0,1,22.68,18.47Z"/><path d="M26.16,13.11l.95-.54,2.39,4.17-.95.55Z"/><path d="M29.7,11.27l1.3-.56,3.34,3.79L33.29,15l-.72-.85-1.6.69.12,1.11-.94.41ZM30.88,14l1.17-.51-1.41-1.65Z"/><path d="M33.82,9.63l1.23-.31,2.56,2.61-.79-3.07.94-.24L39,13.28l-1.05.27-2.79-2.82L36,14.05l-.93.24Z"/><path d="M42.55,8l3.09-.09,0,.85-2,.06,0,1.27,1.58,0,0,.82-1.57,0,.05,1.86-1.09,0Z"/><path d="M46.28,10.34v-.05A2.38,2.38,0,0,1,49,8.12a2.33,2.33,0,0,1,2.2,2.67v.06a2.47,2.47,0,0,1-4.92-.51Zm3.79.4v-.06A1.38,1.38,0,0,0,48.92,9c-.83-.09-1.4.47-1.51,1.43v.06a1.39,1.39,0,0,0,1.17,1.72C49.39,12.27,50,11.7,50.07,10.74Z"/><path d="M53,8.81l1.66.45c1.1.3,1.67.93,1.41,1.89v0a1.24,1.24,0,0,1-1.29,1l.7,2.31-1.12-.3-.62-2.1-.46-.12-.49,1.79-1-.28Zm1.06,2.58c.52.14.85,0,1-.46v0c.12-.48-.12-.72-.62-.85l-.59-.17-.36,1.34Z"/><path d="M58.18,10.3l1.31.6-.23,3.19,2.26-2.26,1.28.6-2,4.36-1-.45,1.42-3.07-2.63,2.51-.32-.15.2-3.62-1.41,3.06-.89-.41Z"/><path d="M62.91,15.91l1.68-2.4.9.63-1.65,2.35c-.46.65-.47,1.07.07,1.45s.94.28,1.45-.44L67,15.19l.9.63-1.66,2.36a1.81,1.81,0,0,1-2.81.47A1.77,1.77,0,0,1,62.91,15.91Z"/><path d="M69.41,17.12l.8.75-2.72,2.88,1.43,1.34-.59.62-2.22-2.09Z"/><path d="M73.06,20.83l.9,1.09-2.7,4.27-.73-.88.62-.93L70,23l-1,.43-.65-.79Zm-2.28,1.9.81,1,1.2-1.81Z"/><path d="M75.21,25.07l-.7-1.1.71-.45,2,3.11-.71.46L75.8,26l-3.34,2.14-.59-.93Z"/><path d="M77.82,27.77l1.34,2.83L78.4,31l-.88-1.85-1,.48.71,1.49-.72.34-.7-1.48-1.09.51.93,1.95-.76.36-1.4-2.92Z"/><path d="M79.78,32.13l.47,1.5a2.21,2.21,0,0,1-1.5,3.11l0,0a2.25,2.25,0,0,1-3-1.71l-.47-1.49Zm-3.32,2.64a1.31,1.31,0,0,0,1.89.9h.05c.95-.3,1.33-.86,1-1.83l-.13-.41-3,.93Z"/><path d="M13.71,52.9l.49,1.59c.34,1.12,0,1.91-.93,2.21h0c-1,.3-1.64-.23-2-1.28l-.18-.59-1.67.51-.31-1ZM12,55.14c.16.51.48.7.94.56h0c.49-.15.59-.49.44-1l-.16-.53-1.41.43Z"/><path d="M15,56.89l.47,1-1.78.84.83,1.74,1.77-.84.47,1-4.35,2-.46-1,1.79-.85-.82-1.75-1.8.85-.46-1Z"/><path d="M15.64,64,17,61.15l.67,1-1,1.83,2.06-.22.59.87-3.11.28-1.73,1.15-.6-.91Z"/><path d="M17,66.89l.69.79a.79.79,0,0,0,0,1.22.69.69,0,0,0,1,.18c.29-.25.26-.49-.13-1.1-.68-1-.74-1.65,0-2.26a1.54,1.54,0,0,1,2.23.37,1.56,1.56,0,0,1,.1,2.31l-.66-.76a.69.69,0,0,0,0-1c-.31-.36-.64-.4-.89-.18s-.27.44.13,1.07c.65,1,.81,1.63.06,2.29a1.63,1.63,0,0,1-2.36-.38C16.2,68.43,16.27,67.57,17,66.89Z"/><path d="M22.71,68.27l.8.74-3.27,3.53-.8-.74Z"/><path d="M22.73,71.65l0-.05A2.35,2.35,0,0,1,26.14,71a1.9,1.9,0,0,1,.68,2.67l-.9-.66a.91.91,0,0,0-.29-1.31c-.61-.45-1.35-.26-1.94.55l0,0c-.59.8-.56,1.54.08,2a1,1,0,0,0,1.43-.09l.87.63a2,2,0,0,1-2.81.18A2.22,2.22,0,0,1,22.73,71.65Z"/><path d="M28.6,72.75l.95.54-2.38,4.17-1-.54Z"/><path d="M31.77,74.4l1.31.55-.45,5-1-.45.11-1.11-1.6-.68-.72.85-.95-.4Zm-1.15,2.73,1.17.5L32,75.47Z"/><path d="M35.2,75.77l1.22.3,1,3.52.77-3.07.94.23L38,81.42l-1.06-.26L35.8,77.35,35,80.67,34,80.43Z"/><path d="M43.1,77.19l3.09,0v.86l-2,0,0,1.27,1.58,0v.82l-1.58,0,0,1.86L43,82Z"/><path d="M46.83,79.7v-.06A2.36,2.36,0,0,1,49,76.91,2.33,2.33,0,0,1,51.73,79v0a2.48,2.48,0,0,1-4.91.64Zm3.78-.49v0c-.12-.93-.69-1.5-1.52-1.4s-1.26.77-1.14,1.74v0A1.4,1.4,0,0,0,49.5,81C50.3,80.86,50.73,80.17,50.61,79.21Z"/><path d="M52.33,76.43,54,76c1.09-.31,1.91-.07,2.19.89v0a1.27,1.27,0,0,1-.59,1.51L57.37,80l-1.11.32-1.62-1.47-.45.14.52,1.78-1,.3Zm2.24,1.66c.53-.16.73-.45.6-.9v0c-.14-.48-.47-.55-1-.41l-.59.17L54,78.26Z"/><path d="M56.75,75.12,58,74.49l2.32,2.21-.31-3.18,1.27-.62,2.1,4.33-1,.48-1.47-3,.27,3.62-.32.15L58.25,76l1.47,3-.88.43Z"/><path d="M63.9,74.72l-1.72-2.38.89-.64L64.74,74c.47.65.87.8,1.4.41s.58-.79.06-1.51l-1.65-2.29.89-.64,1.69,2.35a1.8,1.8,0,0,1-.49,2.8A1.77,1.77,0,0,1,63.9,74.72Z"/><path d="M66.3,69.22l.78-.76,2.74,2.86L71.23,70l.59.61-2.2,2.11Z"/><path d="M69.41,66,70.32,65,75,66.81l-.73.88-1-.43L72.15,68.6l.61.94-.65.79Zm2.29,1.89.81-1-2-.84Z"/><path d="M72.69,63.09,72,64.19l-.72-.46,2-3.12.72.45-.69,1.1,3.35,2.11L76,65.2Z"/><path d="M73.53,60.06l1.34-2.84.77.36-.88,1.86,1,.48.7-1.49.72.34-.7,1.48,1.08.52.92-2,.77.36-1.39,2.94Z"/><path d="M75.21,56.41l.46-1.51a2.22,2.22,0,0,1,3-1.71l0,0a2.25,2.25,0,0,1,1.54,3.13l-.46,1.49Zm4.23-.29c.29-.93-.09-1.52-1-1.82l-.05,0a1.3,1.3,0,0,0-1.88.93l-.13.41,3,.92Z"/><path d="M45,.5A44.5,44.5,0,1,0,89.5,45,44.55,44.55,0,0,0,45,.5Zm0,86.24A41.74,41.74,0,1,1,86.74,45,41.78,41.78,0,0,1,45,86.74Z"/><path d="M10.34,43a2,2,0,1,0,2,2A2,2,0,0,0,10.34,43Z"/><path d="M79.66,43a2,2,0,1,0,2,2A2,2,0,0,0,79.66,43Z"/><path d="M37.24,55.72a2.33,2.33,0,1,1,0-4.65H40V48.3H37.24a5.09,5.09,0,0,0-.54,10.15,5.09,5.09,0,0,0,4.5,7.45h2.42v5.34h2.76V65.9h2.41a5.09,5.09,0,0,0,4.51-7.45,5.09,5.09,0,0,0-.54-10.15H50v2.77h2.76a2.33,2.33,0,1,1,0,4.65H46.38V46.41A26,26,0,0,0,67.76,33l1.13-2h-18l-4.5,4.5V29.38a4.82,4.82,0,1,0-2.76,0v6.08L39.12,31h-18l1.13,2a26,26,0,0,0,21.38,13.4v9.31Zm4,7.42a2.33,2.33,0,0,1,0-4.66h2.42v4.66Zm7.59-4.66a2.33,2.33,0,0,1,0,4.66H46.38V58.48ZM42.94,24.77A2.06,2.06,0,1,1,45,26.83,2.06,2.06,0,0,1,42.94,24.77Zm-17,9H38l5.64,5.65v4.28A23.28,23.28,0,0,1,25.93,33.72Zm38.14,0a23.28,23.28,0,0,1-17.69,9.93V39.36L52,33.72Z"/></svg>