<svg id="Layer_1" data-name="Layer 1" xmlns="http://www.w3.org/2000/svg" viewBox="0 0 90 90"><path d="M28.91,43.69v4.48c0,2.26-1.13,3.55-3.31,3.55s-3.31-1.29-3.31-3.55V40.82c0-2.26,1.13-3.55,3.31-3.55s3.31,1.29,3.31,3.55V42.2h-2.1V40.68c0-1-.44-1.39-1.15-1.39s-1.15.38-1.15,1.39v7.63c0,1,.45,1.37,1.15,1.37s1.15-.36,1.15-1.37v-2.6h-1v-2Z"/><path d="M33.78,37.43V49.54h3.65v2H31.56V37.43Z"/><path d="M36.56,37.43h2.32l1.7,6.44,1.69-6.44h2.12l-2.8,9.45v4.68H39.37V46.88Z"/><path d="M51.92,48.17c0,2.26-1.13,3.55-3.31,3.55s-3.31-1.29-3.31-3.55V40.82c0-2.26,1.13-3.55,3.31-3.55s3.31,1.29,3.31,3.55V42.2h-2.1V40.68c0-1-.44-1.39-1.15-1.39s-1.15.38-1.15,1.39v7.63c0,1,.44,1.37,1.15,1.37s1.15-.36,1.15-1.37v-2h2.1Z"/><path d="M57.16,37.27c2.18,0,3.38,1.29,3.38,3.55v7.35c0,2.26-1.2,3.55-3.38,3.55s-3.37-1.29-3.37-3.55V40.82C53.79,38.56,55,37.27,57.16,37.27Zm0,12.43c.71,0,1.16-.38,1.16-1.39V40.68c0-1-.45-1.39-1.16-1.39S56,39.67,56,40.68v7.63C56,49.32,56.46,49.7,57.16,49.7Z"/><path d="M65.4,37.43V49.54h3.65v2H63.18V37.43Z"/><path d="M45,.5A44.5,44.5,0,1,0,89.5,45,44.55,44.55,0,0,0,45,.5Zm0,86.24A41.61,41.61,0,0,1,16.49,75.46L33.58,58.37l-1.95-1.95L14.54,73.51a41.72,41.72,0,0,1,59-59L57.3,30.75l2,2L75.46,16.49A41.72,41.72,0,0,1,45,86.74Z"/><path d="M45,.5A44.5,44.5,0,1,0,89.5,45,44.55,44.55,0,0,0,45,.5Zm0,86.24A41.74,41.74,0,1,1,86.74,45,41.78,41.78,0,0,1,45,86.74Z"/></svg>