<svg id="Layer_1" data-name="Layer 1" xmlns="http://www.w3.org/2000/svg" viewBox="0 0 90 90"><path d="M45,.5A44.5,44.5,0,1,0,89.5,45,44.55,44.55,0,0,0,45,.5Zm0,86.24A41.61,41.61,0,0,1,16.49,75.46L33.58,58.37l-1.95-1.95L14.54,73.51a41.72,41.72,0,0,1,59-59L57.3,30.75l2,2L75.46,16.49A41.72,41.72,0,0,1,45,86.74Z"/><path d="M19.16,51.56,18.78,49H16.06l-.39,2.56h-2L15.9,37.43h3.24L21.4,51.56Zm-.68-4.48-1.07-7.14-1.07,7.14Z"/><path d="M25.26,37.43V49.54h3.65v2H23V37.43Z"/><path d="M32.1,37.43V49.54h3.65v2H29.88V37.43Z"/><path d="M42,43.39v2H38.94v4.14h3.83v2H36.72V37.43h6.05v2H38.94v3.94Z"/><path d="M48.79,49.82V47.6c0-1.31-.45-1.79-1.45-1.79h-.77v5.75H44.35V37.43H47.7C50,37.43,51,38.5,51,40.68v1.11a2.83,2.83,0,0,1-1.46,2.87c1.12.46,1.48,1.53,1.48,3v2.17a4.22,4.22,0,0,0,.24,1.72H49A4.4,4.4,0,0,1,48.79,49.82Zm-2.22-6h.87c.82,0,1.33-.36,1.33-1.49V40.9c0-1-.34-1.45-1.13-1.45H46.57Z"/><path d="M59.4,43.69v4.48c0,2.26-1.13,3.55-3.31,3.55s-3.31-1.29-3.31-3.55V40.82c0-2.26,1.13-3.55,3.31-3.55s3.31,1.29,3.31,3.55V42.2H57.31V40.68c0-1-.45-1.39-1.16-1.39S55,39.67,55,40.68v7.63c0,1,.45,1.37,1.15,1.37s1.16-.36,1.16-1.37v-2.6h-1v-2Z"/><path d="M66.71,43.39v2h-3v4.14H67.5v2H61.44V37.43H67.5v2H63.66v3.94Z"/><path d="M71,51.56H69V37.43h2.78L74,45.89V37.43h2V51.56H73.71L71,41.33Z"/><path d="M45,.5A44.5,44.5,0,1,0,89.5,45,44.55,44.55,0,0,0,45,.5Zm0,86.24A41.74,41.74,0,1,1,86.74,45,41.78,41.78,0,0,1,45,86.74Z"/></svg>