<svg id="Layer_1" data-name="Layer 1" xmlns="http://www.w3.org/2000/svg" viewBox="0 0 90 90"><path d="M45,.5A44.5,44.5,0,1,0,89.5,45,44.55,44.55,0,0,0,45,.5Zm0,86.24A41.74,41.74,0,1,1,86.74,45,41.78,41.78,0,0,1,45,86.74Z"/><path d="M58.68,18.86,45,11,31.33,18.86v15.8L45,42.55l13.68-7.89ZM45,14.16l5.44,3.13L34.09,26.74V20.46ZM34.09,29.92l19.11-11,2.72,1.57V23.6l-19.12,11-2.71-1.57ZM45,39.36l-5.43-3.14,16.35-9.44v6.28Z"/><path d="M29.2,38.32l-13.68,7.9V62l13.67,7.9L42.88,62V46.22Zm0,28.4-10.91-6.3V47.81l10.92-6.3,10.92,6.3V60.42Z"/><path d="M47.12,46.23V62l13.67,7.9L74.47,62V46.23l-13.68-7.9Zm24.59,14.2-10.92,6.3-10.91-6.3V47.82l10.91-6.3,10.92,6.3Z"/></svg>