<svg id="Layer_1" data-name="Layer 1" xmlns="http://www.w3.org/2000/svg" viewBox="0 0 90 90"><path d="M45,.5A44.5,44.5,0,1,0,89.5,45,44.55,44.55,0,0,0,45,.5Zm0,86.24A41.74,41.74,0,1,1,86.74,45,41.78,41.78,0,0,1,45,86.74Z"/><path d="M46.38,56.52V46.24A24.07,24.07,0,0,0,46,12.65l-1-1-1,1a24.08,24.08,0,0,0-.4,33.59V56.52a24.06,24.06,0,0,0-21.3-12.89H20.94V45A24.09,24.09,0,0,0,43.62,69v9.17h2.76V69.07h0v0A24.08,24.08,0,0,0,69.06,45V43.63H67.68A24.08,24.08,0,0,0,46.38,56.52ZM23.75,46.43A21.33,21.33,0,0,1,43.57,66.26,21.34,21.34,0,0,1,23.75,46.43ZM45,15.64a21.35,21.35,0,0,1,0,28A21.35,21.35,0,0,1,45,15.64Zm1.43,50.62A21.34,21.34,0,0,1,66.25,46.43,21.33,21.33,0,0,1,46.43,66.26Z"/></svg>