<svg id="Layer_1" data-name="Layer 1" xmlns="http://www.w3.org/2000/svg" viewBox="0 0 90 90"><path d="M10.4,32.75,11.19,31l4.16.31-2.94-3,.77-1.68,5.71,2.63-.59,1.29-4-1.85,3.28,3.43-.19.43-4.75-.26,4,1.85-.53,1.16Z"/><path d="M15,24l2.53-3.23.88.69-1.66,2.11,1.16.9,1.32-1.68.82.64L18.75,25.1l1.24,1,1.74-2.22.87.68L20,27.87Z"/><path d="M19.4,18.8,21,17.47c1.68-1.43,3.29-1.23,4.51.2l.05.06c1.22,1.43,1.2,3.1-.48,4.53l-1.56,1.33Zm4.88,2.65a1.73,1.73,0,0,0,.12-2.75l0-.05a1.7,1.7,0,0,0-2.72-.29l-.43.36,2.64,3.1Z"/><path d="M25.58,14l1.23-.74,3.24,5.39-1.23.74Z"/><path d="M30.22,14.94l0-.06a3.06,3.06,0,0,1,1.75-4.13,2.5,2.5,0,0,1,3.43,1.13L34,12.41a1.2,1.2,0,0,0-1.65-.61c-.93.36-1.24,1.31-.77,2.52l0,.07c.47,1.21,1.3,1.7,2.27,1.33a1.33,1.33,0,0,0,.91-1.65l1.3-.5a2.55,2.55,0,0,1-1.78,3.21A2.91,2.91,0,0,1,30.22,14.94Z"/><path d="M38.27,9.06l1.83-.29,3,5.88-1.46.24L41,13.58l-2.25.36-.2,1.45-1.32.21Zm.62,3.83,1.64-.26-1.24-2.55Z"/><path d="M44.7,8.41l1.42.06-.21,5.17,2.56.1,0,1.12-4-.16Z"/><path d="M53.34,12.54l0-.06a3.07,3.07,0,0,1,4.09-1.94c1.32.47,2.28,1.49,1.9,3L58,13.07a1.22,1.22,0,0,0-.92-1.47c-1-.37-1.91.19-2.34,1.4l0,.06c-.41,1.15-.22,2.14.94,2.55a1.32,1.32,0,0,0,1.87-.74l-1.33-.47.35-1,2.66.95L59,15a2.66,2.66,0,0,1-3.72,1.64A3,3,0,0,1,53.34,12.54Z"/><path d="M62.71,13l1.9,1.21c1.25.8,1.72,1.81,1,2.91l0,0a1.64,1.64,0,0,1-2,.72l0,3.14-1.28-.81,0-2.86L61.83,17,60.52,19l-1.19-.76ZM63,16.58c.6.38,1.06.32,1.39-.19l0,0c.34-.54.13-.93-.44-1.3l-.68-.43-1,1.52Z"/><path d="M69.77,18.12l1.34,1.29L68.2,25.35l-1.07-1,.66-1.3-1.63-1.59-1.29.71-1-.93Zm-2.69,2.79,1.2,1.16,1.29-2.53Z"/><path d="M74,22.62l1.14,1.71c1.23,1.83.84,3.41-.72,4.45l-.06,0c-1.56,1.05-3.22.83-4.45-1l-1.14-1.7Zm-3.19,4.55a1.73,1.73,0,0,0,2.71.43l.06,0a1.7,1.7,0,0,0,.6-2.67l-.31-.47-3.38,2.26Z"/><path d="M78.13,29.45l1.55,3.8-1,.41-1-2.48-1.36.55.81,2-1,.39-.81-2-1.45.59,1.06,2.62-1,.41-1.59-3.92Z"/><path d="M13.71,45a2.12,2.12,0,1,1-2.12-2.11A2.11,2.11,0,0,1,13.71,45Z"/><path d="M76.29,45a2.12,2.12,0,1,0,2.12-2.11A2.11,2.11,0,0,0,76.29,45Z"/><path d="M16.14,54.65l.79,1.71-2.94,3L18.15,59l.77,1.68-5.7,2.64L12.62,62l4-1.85-4.74.27L11.7,60,15,56.6l-4,1.85-.53-1.16Z"/><path d="M20.15,62.35l2.56,3.2-.87.7-1.67-2.1L19,65.07l1.34,1.67-.81.65-1.34-1.68-1.22,1,1.76,2.21-.87.69-2.64-3.31Z"/><path d="M23.81,66.72,25.39,68c1.71,1.41,1.79,3,.59,4.48l-.05,0c-1.2,1.45-2.84,1.72-4.55.32L19.8,71.57ZM22.06,72a1.71,1.71,0,0,0,2.71-.36l.05,0a1.7,1.7,0,0,0-.19-2.74l-.43-.35-2.59,3.13Z"/><path d="M29.32,70.87l1.24.72L27.42,77l-1.24-.72Z"/><path d="M30.77,75.4l0-.07a3.05,3.05,0,0,1,4-1.94,2.48,2.48,0,0,1,1.84,3.1L35.29,76a1.19,1.19,0,0,0-.84-1.54c-.93-.34-1.79.17-2.24,1.39l0,.06C31.74,77.13,32,78,33,78.4a1.32,1.32,0,0,0,1.77-.64l1.31.48a2.55,2.55,0,0,1-3.46,1.25A2.92,2.92,0,0,1,30.77,75.4Z"/><path d="M39.78,74.81l1.84.26,1.13,6.51-1.47-.2-.23-1.45-2.26-.32-.62,1.32-1.32-.19Zm-.54,3.84,1.65.23-.44-2.8Z"/><path d="M44.93,75.29l1.43-.08.29,5.17,2.56-.15.06,1.12-4,.22Z"/><path d="M53.14,77.58l0-.07a3.08,3.08,0,0,1,2-4.09c1.32-.46,2.71-.27,3.37,1.15L57.11,75a1.21,1.21,0,0,0-1.64-.56c-1,.36-1.37,1.34-.94,2.55l0,.07c.4,1.15,1.18,1.8,2.34,1.39a1.32,1.32,0,0,0,1-1.75l-1.34.46-.34-1,2.67-.93.22.63a2.67,2.67,0,0,1-1.87,3.62A3,3,0,0,1,53.14,77.58Z"/><path d="M59.16,71.83l1.91-1.2c1.26-.79,2.38-.78,3.07.32l0,0a1.64,1.64,0,0,1-.21,2.1l2.83,1.38-1.28.81L62.94,74l-.52.33,1.29,2-1.2.76Zm3.42,1.27c.6-.38.75-.83.42-1.34v0c-.35-.55-.79-.53-1.37-.16l-.68.43,1,1.52Z"/><path d="M65.13,67.59l1.34-1.27,5.81,3.16-1.08,1-1.27-.72-1.66,1.57.65,1.31-1,.92ZM67.8,70.4,69,69.26l-2.47-1.41Z"/><path d="M68.61,64.06l1.16-1.7c1.24-1.82,2.85-2,4.4-1l.06,0c1.56,1.06,2,2.68.74,4.51L73.81,67.6ZM74,65.32a1.74,1.74,0,0,0-.62-2.68l-.06,0a1.7,1.7,0,0,0-2.7.44l-.32.47L73.7,65.8Z"/><path d="M72.28,58.21l1.55-3.79,1,.42-1,2.48,1.36.56.81-2,1,.39-.82,2,1.45.59,1.07-2.61,1,.42L78.1,60.59Z"/><path d="M45,.5A44.5,44.5,0,1,0,89.5,45,44.55,44.55,0,0,0,45,.5Zm0,86.24A41.74,41.74,0,1,1,86.74,45,41.78,41.78,0,0,1,45,86.74Z"/><path d="M50.35,37.11V29.66a4.06,4.06,0,0,0-1.48-7.83H41.13a4.06,4.06,0,0,0-1.48,7.83v7.45L29.7,54.37A7.08,7.08,0,0,0,35.82,65H54.18A7.08,7.08,0,0,0,60.3,54.37Zm3.83,25.12H35.82a4.32,4.32,0,0,1-3.73-6.48l10.32-17.9V27.22l-1.32,0a1.29,1.29,0,0,1,0-2.58h7.74a1.29,1.29,0,0,1,.05,2.58l-1.33,0V37.85l10.32,17.9a4.32,4.32,0,0,1-3.73,6.48Z"/><polygon points="46.38 45.92 43.62 45.92 43.62 50.46 39.08 50.46 39.08 53.22 43.62 53.22 43.62 57.76 46.38 57.76 46.38 53.22 50.92 53.22 50.92 50.46 46.38 50.46 46.38 45.92"/></svg>