<svg id="Layer_1" data-name="Layer 1" xmlns="http://www.w3.org/2000/svg" viewBox="0 0 90 90"><path d="M11.52,44.45h-.07A3.05,3.05,0,0,1,8.57,41a2.49,2.49,0,0,1,2.57-2.54L11,39.92a1.21,1.21,0,0,0-1.3,1.19c-.1,1,.61,1.7,1.9,1.84h.07c1.3.14,2.11-.38,2.22-1.41A1.32,1.32,0,0,0,12.83,40L13,38.59a2.56,2.56,0,0,1,2.06,3A2.92,2.92,0,0,1,11.52,44.45Z"/><path d="M9.61,35.69,10,34.33,15,35.89l.77-2.44,1.06.33-1.19,3.8Z"/><path d="M11.72,29.86l.62-1.29L18,31.29l-.62,1.29Z"/><path d="M13.9,25.62l1-1.34,4.75.51-3.35-2.44.75-1L22.11,25l-.84,1.16-5.16-.53,3.62,2.64-.75,1Z"/><path d="M19.42,18.89l1-1,4.31,4.57-1,1Z"/><path d="M24.21,18.75l0-.06a3.05,3.05,0,0,1,.84-4.4,2.48,2.48,0,0,1,3.58.37l-1.21.81a1.21,1.21,0,0,0-1.75-.25c-.82.55-.93,1.55-.21,2.63l0,.06c.71,1.09,1.63,1.39,2.5.82a1.32,1.32,0,0,0,.54-1.8l1.17-.77a2.56,2.56,0,0,1-1.06,3.52A2.92,2.92,0,0,1,24.21,18.75Z"/><path d="M30.77,11.32l1.73-.68,4.2,5.1-1.38.55-.91-1.15L32.29,16l.11,1.46-1.25.49Zm1.43,3.6,1.55-.61L32,12.09Z"/><path d="M36.73,9.35l1.4-.25.92,5.09,2.52-.45.19,1.1-3.92.7Z"/><path d="M42.84,8.48l1.43,0,.08,5.17,2.56,0,0,1.12-4,.06Z"/><path d="M49.17,12.29,47.64,8.45l1.55.22.91,2.57L51.69,9l1.36.2L50.59,12.5l-.39,2.68L48.78,15Z"/><path d="M58.94,11.15l2,.94c1.38.66,1.87,1.65,1.29,2.84v0c-.58,1.19-1.68,1.36-3,.74l-.72-.34-1,2.06-1.28-.62Zm.62,3.63a.92.92,0,0,0,1.38-.4v0c.29-.6.06-1-.55-1.3l-.65-.32-.84,1.74Z"/><path d="M65,14.31l1.8,1.35c1.19.88,1.59,1.93.81,3l0,0a1.63,1.63,0,0,1-2,.57l-.26,3.14-1.21-.9.24-2.85-.49-.37L62.36,20.2l-1.14-.85ZM65,18c.57.43,1,.41,1.4-.08l0,0c.38-.51.2-.92-.35-1.33L65.46,16l-1.08,1.45Z"/><path d="M68.08,20.69l0,0a3.11,3.11,0,0,1,4.54.34,3.06,3.06,0,0,1-.27,4.52l-.05,0a3.09,3.09,0,0,1-4.57-.33A3.07,3.07,0,0,1,68.08,20.69Zm3.28,3.76.06-.05a1.78,1.78,0,1,0-2.31-2.64l0,0a1.84,1.84,0,0,0-.41,2.7A1.81,1.81,0,0,0,71.36,24.45Z"/><path d="M75.58,24.77l.73,1.32-3.5,3.64,4.94-1,.65,1.17-6.51,1.21-.8-1.43Z"/><path d="M79.16,31.86l1.27,3.9-1.05.34-.83-2.55-1.4.45.66,2-1,.33-.67-2-1.49.48.88,2.68-1.06.35-1.31-4Z"/><path d="M81,38.24l.18,1.65-3.85,2.84,4.12-.47.14,1.26-6.25.71-.16-1.42,4.16-3.11-4.45.5L74.77,39Z"/><path d="M19.12,60.67l.77,1.21-5.3,3.39-.77-1.21Z"/><path d="M21.19,63.83,22.33,65,21,69.62l3-2.84.87.92L20.27,72l-1-1,1.45-5-3.25,3.08-.87-.92Z"/><path d="M24.12,71.29l0-.06a3.09,3.09,0,0,1,4.44-.94c1.17.77,1.86,2,1.13,3.38l-1.18-.78A1.21,1.21,0,0,0,28,71.25c-.91-.6-1.89-.27-2.6.81l0,0c-.66,1-.7,2,.33,2.71a1.33,1.33,0,0,0,2-.28l-1.18-.78.56-.87,2.37,1.55-.37.56a2.67,2.67,0,0,1-4,.72A3,3,0,0,1,24.12,71.29Z"/><path d="M32.34,72.57l2.11.78c1.39.52,2.06,1.41,1.61,2.63v0a1.64,1.64,0,0,1-1.8,1.11l.63,3.09-1.42-.53-.56-2.8-.58-.21L31.47,79l-1.32-.5Zm1.07,3.48q1,.38,1.32-.48v0c.22-.6-.06-.94-.7-1.18l-.76-.28-.62,1.69Z"/><path d="M38.35,74.57l4,.64-.17,1.1-2.65-.42-.23,1.45,2.12.33-.16,1-2.12-.33-.25,1.54,2.79.44-.17,1.1-4.19-.66Z"/><path d="M43.93,75.33l2-.1c2.21-.1,3.36,1,3.44,2.92v.07c.08,1.88-1,3.19-3.16,3.29l-2.05.1Zm2.24,5.08c1.27-.06,1.83-.8,1.77-2.1v-.07c-.06-1.29-.65-2-2-1.9l-.57,0,.19,4.07Z"/><path d="M50.84,74.69l1.4-.31,1.36,6.14-1.4.31Z"/><path d="M54.46,73.8l3.8-1.53.42,1-2.49,1,.55,1.36,2-.8.38,1-2,.8.59,1.45,2.62-1,.41,1L56.8,79.64Z"/><path d="M59.68,71.58l1.37-.92,4.3,2.09L63,69.32l1-.71,3.52,5.22-1.18.79-4.68-2.24,2.5,3.71-1,.71Z"/><path d="M66.87,67.48l-1.19,1.21-.79-.78,3.38-3.44.79.78-1.19,1.21,3.7,3.63-1,1Z"/><path d="M72.13,66.57l.77-1.13A1,1,0,0,0,74.44,65a.9.9,0,0,0-.11-1.33c-.41-.29-.7-.17-1.34.52-1.08,1.21-1.85,1.48-2.86.79a2,2,0,0,1-.25-2.94c.8-1.17,1.79-1.5,2.88-.89L72,62.25a.9.9,0,0,0-1.28.39c-.35.51-.29.94.06,1.18s.66.2,1.32-.52c1-1.14,1.8-1.56,2.88-.82a2.12,2.12,0,0,1,.3,3.11C74.33,67,73.21,67.21,72.13,66.57Z"/><path d="M45,.5A44.5,44.5,0,1,0,89.5,45,44.55,44.55,0,0,0,45,.5Zm0,86.24A41.74,41.74,0,1,1,86.74,45,41.78,41.78,0,0,1,45,86.74Z"/><path d="M12.69,51.51a2.12,2.12,0,1,0,2.11,2.11A2.12,2.12,0,0,0,12.69,51.51Z"/><path d="M77.31,51.51a2.12,2.12,0,1,0,2.12,2.11A2.12,2.12,0,0,0,77.31,51.51Z"/><path d="M53.78,23.56H36.23a1.38,1.38,0,1,0,0,2.76H38.3v36a6.71,6.71,0,1,0,13.41,0v-36h2.07a1.38,1.38,0,0,0,0-2.76ZM49,62.31a3.95,3.95,0,1,1-7.89,0V57H45V54.23H41.06V46.76H45V44H41.06V36.54H45V33.78H41.06V26.32H49Z"/></svg>