<svg id="Layer_1" data-name="Layer 1" xmlns="http://www.w3.org/2000/svg" viewBox="0 0 90 90"><path d="M45,89.5A44.5,44.5,0,1,1,89.5,45,44.55,44.55,0,0,1,45,89.5ZM45,3.26A41.74,41.74,0,1,0,86.74,45,41.78,41.78,0,0,0,45,3.26Z"/><path d="M17.92,56V33.27h3.57V43h4.05V33.27h3.64V56H25.54V46.24H21.49V56Z"/><path d="M41.53,42.83v3.24h-4.9v6.65h6.16V56H33.07V33.27h9.72v3.24H36.63v6.32Z"/><path d="M55.15,33.27h5V56H56.74V39.69L54.27,56H50.9L48.24,39.91V56H45.13V33.27h5l2.63,16.11Z"/><path d="M74.57,38.88v2.95c0,3.63-1.75,5.61-5.32,5.61H67.57V56H64V33.27h5.25C72.82,33.27,74.57,35.24,74.57,38.88Zm-7,5.31h1.68c1.14,0,1.75-.52,1.75-2.14v-3.4c0-1.62-.61-2.14-1.75-2.14H67.57Z"/></svg>