<svg id="Layer_1" data-name="Layer 1" xmlns="http://www.w3.org/2000/svg" viewBox="0 0 90 90"><path d="M45,.5A44.5,44.5,0,1,0,89.5,45,44.55,44.55,0,0,0,45,.5Zm0,86.24A41.74,41.74,0,1,1,86.74,45,41.78,41.78,0,0,1,45,86.74Z"/><path d="M45,13.74A31.3,31.3,0,0,0,13.74,45v1.38H33.21V45a11.79,11.79,0,0,1,23.58,0v1.38H76.26V45A31.3,31.3,0,0,0,45,13.74ZM30.52,43.62h-14a28.52,28.52,0,0,1,13-22.57l7,12.11A14.5,14.5,0,0,0,30.52,43.62ZM51,31.77a14.58,14.58,0,0,0-12.08,0l-7-12.1a28.4,28.4,0,0,1,26.06,0Zm8.44,11.85a14.54,14.54,0,0,0-6-10.46l7-12.11a28.5,28.5,0,0,1,13,22.57Z"/><path d="M46,40.82l-1-1.18-1,1.18A61.92,61.92,0,0,0,33.68,57.89a17.23,17.23,0,0,0-1.16,6.16,12.48,12.48,0,0,0,25,0,17.15,17.15,0,0,0-1.16-6.16A61.92,61.92,0,0,0,46,40.82ZM45,73.76a9.73,9.73,0,0,1-9.72-9.71,14.5,14.5,0,0,1,1-5.24A59.08,59.08,0,0,1,45,43.88a59.08,59.08,0,0,1,8.72,14.93,14.5,14.5,0,0,1,1,5.24A9.73,9.73,0,0,1,45,73.76Z"/><path d="M45,18.77a1.73,1.73,0,1,0,1.73,1.73A1.74,1.74,0,0,0,45,18.77Z"/><path d="M41.47,25a1.73,1.73,0,1,0,2,1.4A1.72,1.72,0,0,0,41.47,25Z"/><path d="M40.33,20.89A1.73,1.73,0,1,0,39.11,23,1.73,1.73,0,0,0,40.33,20.89Z"/><path d="M51.79,19.67A1.73,1.73,0,1,0,53,21.79,1.73,1.73,0,0,0,51.79,19.67Z"/><path d="M48.53,25a1.73,1.73,0,1,0,1.4,2A1.72,1.72,0,0,0,48.53,25Z"/></svg>