<svg id="Layer_1" data-name="Layer 1" xmlns="http://www.w3.org/2000/svg" viewBox="0 0 90 90"><path d="M22.83,40.92v1.84c0,2.26-1.09,3.49-3.31,3.49H18.47v5.31H16.25V37.43h3.27C21.74,37.43,22.83,38.66,22.83,40.92Zm-4.36,3.31h1.05c.71,0,1.09-.32,1.09-1.33V40.78c0-1-.38-1.33-1.09-1.33H18.47Z"/><path d="M28.6,51.56,28.22,49H25.49l-.38,2.56h-2l2.26-14.13h3.25l2.26,14.13Zm-.69-4.48-1.07-7.14-1.07,7.14Z"/><path d="M37.12,49.82V47.6c0-1.31-.45-1.79-1.46-1.79H34.9v5.75H32.68V37.43H36c2.3,0,3.29,1.07,3.29,3.25v1.11a2.83,2.83,0,0,1-1.46,2.87c1.11.46,1.48,1.53,1.48,3v2.18a4.22,4.22,0,0,0,.24,1.72H37.32A4.4,4.4,0,0,1,37.12,49.82Zm-2.22-6h.86c.83,0,1.34-.36,1.34-1.49V40.9c0-1-.35-1.45-1.13-1.45H34.9Z"/><path d="M46.24,51.56,45.85,49H43.13l-.38,2.56h-2L43,37.43h3.25l2.26,14.13Zm-.69-4.48-1.07-7.14-1.07,7.14Z"/><path d="M56.75,40.68v.51c0,1.45-.44,2.38-1.43,2.84,1.19.47,1.65,1.54,1.65,3v1.15c0,2.18-1.15,3.35-3.37,3.35H50.11V37.43h3.35C55.76,37.43,56.75,38.5,56.75,40.68Zm-4.42,2.5h.87c.83,0,1.33-.36,1.33-1.49V40.9c0-1-.34-1.45-1.13-1.45H52.33Zm0,6.36H53.6c.75,0,1.15-.34,1.15-1.39V46.92c0-1.31-.42-1.72-1.43-1.72h-1Z"/><path d="M64.24,43.39v2h-3v4.14H65v2H59V37.43H65v2H61.19v3.94Z"/><path d="M68.78,51.56h-2V37.43h2.79l2.28,8.46V37.43h2V51.56H71.54L68.78,41.33Z"/><path d="M45,.5A44.55,44.55,0,0,0,.5,45c0,.77,0,1.53.06,2.29a44.5,44.5,0,0,0,88.88,0c0-.76.06-1.52.06-2.29A44.55,44.55,0,0,0,45,.5Zm0,86.24c-.7,0-1.4,0-2.1,0l-.7,0c-.46,0-.92-.06-1.37-.11l-.84-.1-1.2-.15-.9-.16c-.37-.06-.74-.12-1.11-.2l-.92-.2-1.06-.25c-.31-.07-.62-.16-.93-.25l-1-.28-.93-.31-1-.32L30,84l-.92-.36-.93-.4-.88-.4-.93-.45-.83-.43-.92-.5L23.83,81l-.91-.55-.75-.49q-.45-.28-.9-.6c-.24-.17-.48-.33-.71-.51s-.59-.43-.88-.65-.45-.35-.67-.53-.58-.46-.86-.7l-.64-.55-.83-.74-.18-.18L33.58,58.37l-1.95-1.95L14.55,73.5l-.18-.18c-.25-.27-.5-.56-.75-.84l-.54-.63c-.24-.28-.48-.58-.71-.87l-.52-.65-.67-.9-.48-.69-.63-.92c-.15-.24-.3-.48-.46-.72L9,66.15c-.15-.24-.29-.5-.43-.75s-.36-.63-.53-1l-.41-.79c-.16-.32-.32-.64-.47-1s-.25-.55-.38-.83l-.42-1c-.12-.3-.23-.59-.34-.89s-.25-.64-.37-1-.21-.61-.31-.92-.22-.65-.32-1-.18-.65-.28-1-.18-.64-.26-1l-.24-1c-.07-.31-.14-.62-.2-.94s-.14-.73-.2-1.1-.11-.6-.16-.91L3.57,50c0-.28-.07-.56-.1-.85-.05-.45-.08-.91-.11-1.37,0-.23,0-.46,0-.7,0-.7-.05-1.4-.05-2.1A41.78,41.78,0,0,1,45,3.26c.7,0,1.4,0,2.1.05l.7,0c.46,0,.92.06,1.37.11l.85.1,1.19.15.91.16c.37.06.74.12,1.1.2l.93.2,1.05.24.94.26,1,.28.95.31,1,.32.95.36.9.36.95.41c.29.12.58.25.86.39l1,.46q.4.2.81.42c.32.16.63.33.94.51s.52.29.78.45l.92.56.74.47.9.61.71.5.88.66c.23.17.45.35.67.53s.58.46.86.7l.64.55.83.74.18.18L57.3,30.75l2,2,16.2-16.2.17.17c.26.28.51.57.76.85l.54.62c.24.29.48.58.71.88l.52.65.66.9.5.7c.21.29.41.6.61.9s.32.49.47.74.38.61.56.92.31.52.45.78.35.62.51.93.29.55.42.83.31.62.46.94.27.57.39.86.28.63.41.94.24.61.36.92l.36.94c.11.31.21.63.32,1s.21.63.31.95.19.66.28,1,.18.62.26.93l.24,1.06c.07.3.14.61.2.92s.14.74.2,1.11.11.6.16.9.1.8.15,1.2.07.56.1.84c0,.45.08.91.11,1.37,0,.23,0,.46,0,.7,0,.7,0,1.4,0,2.1A41.78,41.78,0,0,1,45,86.74Z"/></svg>