<svg id="Layer_1" data-name="Layer 1" xmlns="http://www.w3.org/2000/svg" viewBox="0 0 90 90"><path d="M33.92,30.69v4H29.35v23.8H25V34.66H20.43v-4Z"/><path d="M36.61,58.46V30.69H41v11.9h5V30.69h4.45V58.46H45.93V46.56H41v11.9Z"/><path d="M68,51.79c0,4.45-2.22,7-6.5,7S55,56.24,55,51.79V37.35c0-4.44,2.22-7,6.51-7s6.5,2.54,6.5,7v2.7H63.87v-3c0-2-.88-2.74-2.27-2.74s-2.26.75-2.26,2.74v15c0,2,.87,2.7,2.26,2.7s2.27-.72,2.27-2.7v-4H68Z"/><path d="M45,.5A44.5,44.5,0,1,0,89.5,45,44.55,44.55,0,0,0,45,.5Zm0,86.24A41.61,41.61,0,0,1,16.49,75.46L28.3,63.65,26.35,61.7,14.54,73.51a41.72,41.72,0,0,1,59-59L62.37,25.68l1.95,1.95L75.46,16.49A41.72,41.72,0,0,1,45,86.74Z"/><path d="M45,.5A44.5,44.5,0,1,0,89.5,45,44.55,44.55,0,0,0,45,.5Zm0,86.24A41.74,41.74,0,1,1,86.74,45,41.78,41.78,0,0,1,45,86.74Z"/></svg>