<svg id="Layer_1" data-name="Layer 1" xmlns="http://www.w3.org/2000/svg" viewBox="0 0 90 90"><path d="M40.43,22.46,28.5,34.4V64.55h33V22.46Zm-.81,4.71v6.42H33.21ZM58.74,61.79H31.26V36.35H42.38V25.22H58.74Z"/><polygon points="40.99 43.84 38.67 45.32 43.52 52.93 54.36 35.91 52.03 34.43 43.52 47.79 40.99 43.84"/><path d="M45,89.5A44.5,44.5,0,1,1,89.5,45,44.55,44.55,0,0,1,45,89.5ZM45,3.26A41.74,41.74,0,1,0,86.74,45,41.78,41.78,0,0,0,45,3.26Z"/><path d="M12.43,47.24a2,2,0,1,1-2-2A2,2,0,0,1,12.43,47.24Z"/><path d="M77.57,47.24a2,2,0,1,0,2-2A2,2,0,0,0,77.57,47.24Z"/><path d="M10.82,39.19h-.05a2.33,2.33,0,0,1-1.84-2.89,1.9,1.9,0,0,1,2.19-1.67l-.26,1.09a.9.9,0,0,0-1.09.77c-.18.74.28,1.35,1.25,1.58h.06c1,.23,1.63-.08,1.82-.85a1,1,0,0,0-.65-1.29l.25-1a2,2,0,0,1,1.26,2.52A2.23,2.23,0,0,1,10.82,39.19Z"/><path d="M10,32.8l1.15-2.92.79.32-.76,1.9,1.05.42.6-1.53.74.29L13,32.81l1.11.44.79-2,.79.31-1.19,3Z"/><path d="M11.83,28.44l.84-1.51c.56-1,1.31-1.39,2.18-.9h0a1.26,1.26,0,0,1,.63,1.49l2.4-.11-.56,1-2.19.1-.22.41,1.61.9-.53.95Zm2.76-.4c.26-.47.2-.83-.2-1.05l0,0c-.43-.24-.72-.06-1,.4l-.3.53,1.2.67Z"/><path d="M15.5,24l-.77,1.05-.68-.51,2.19-3,.68.5-.77,1.05,3.19,2.34-.65.89Z"/><path d="M17.1,20.64l.74-.81,3.57,3.22-.73.81Z"/><path d="M19.26,18.34l2.3-2.06.57.64-1.48,1.33.84.95,1.18-1.06.55.61L22,19.81l1.25,1.39-.82.72Z"/><path d="M22.62,15.5l.88-.65,2.85,3.87-.88.65Z"/><path d="M25.89,16.08l0,0a2.33,2.33,0,0,1,.85-3.32,1.91,1.91,0,0,1,2.72.46l-1,.55a.9.9,0,0,0-1.31-.26c-.66.37-.79,1.13-.29,2l0,.05c.5.86,1.18,1.14,1.87.74a1,1,0,0,0,.5-1.35l.93-.53a2,2,0,0,1-1,2.64A2.23,2.23,0,0,1,25.89,16.08Z"/><path d="M30.77,10.8l1.32-.52,3.22,3.9-1.06.42-.7-.88-1.62.64L32,15.48l-1,.37Zm1.1,2.76,1.18-.47-1.35-1.7Z"/><path d="M35.56,10.06l-1.25.32-.21-.82,3.58-.91.21.82-1.26.32,1,3.84-1.06.27Z"/><path d="M38.89,8.44,42,8.05l.11.84-2,.26.14,1.11,1.63-.2.1.79-1.63.2.15,1.19L42.6,12l.11.84-3.22.41Z"/><path d="M46.07,10.34v-.06A2.37,2.37,0,0,1,48.79,8.1,2.33,2.33,0,0,1,51,10.76v.05A2.37,2.37,0,0,1,48.28,13,2.34,2.34,0,0,1,46.07,10.34Zm3.8.37v-.06A1.37,1.37,0,0,0,48.7,9c-.83-.08-1.39.48-1.49,1.44v0a1.4,1.4,0,0,0,1.19,1.72C49.2,12.24,49.77,11.67,49.87,10.71Z"/><path d="M52.85,8.78l3,.76-.21.83-1.94-.49-.31,1.23,1.53.39-.2.79-1.54-.39-.46,1.81-1.05-.27Z"/><path d="M60.66,11.43l1.28.63-.72,5-1-.5.17-1.1-1.56-.77L58,15.5l-.92-.45Zm-1.3,2.67,1.14.56.35-2.15Z"/><path d="M64.56,13.49l1,.72-.31,3.65,1.81-2.6.8.56-2.76,3.94-.89-.63.32-3.95-2,2.8-.79-.55Z"/><path d="M70.11,17.78l1,1-2.2,4.55-.82-.78.5-1-1.26-1.21-1,.55-.74-.71Zm-2,2.15.91.87,1-1.93Z"/><path d="M73.2,21l.68.85-3.1,2.46L72,25.81l-.67.53L69.43,24Z"/><path d="M73.69,26.21l1.46-2.81.65,1-1,1.81L76.83,26l.57.9-3.12.2-1.75,1.11-.59-.93Z"/><path d="M74.7,28.89l.45.94A.8.8,0,0,0,74.84,31c.2.43.57.61.91.45s.38-.41.18-1.09c-.38-1.18-.26-1.8.58-2.19a1.54,1.54,0,0,1,2,1A1.54,1.54,0,0,1,78,31.4l-.43-.91a.69.69,0,0,0,.24-1c-.21-.43-.51-.56-.8-.42s-.39.35-.17,1.07c.36,1.12.33,1.79-.57,2.22a1.63,1.63,0,0,1-2.17-1C73.55,30.17,73.86,29.36,74.7,28.89Z"/><path d="M79.84,32.43l.36,1L75.65,35l-.35-1Z"/><path d="M77.45,35.58l.23,1c-.41.14-.71.4-.55,1.1.1.46.43.71.8.63s.46-.31.4-1c-.11-1.23.14-1.81,1-2s1.55.35,1.79,1.38a1.55,1.55,0,0,1-1,2.08l-.22-1a.7.7,0,0,0,.45-.92c-.11-.46-.38-.65-.69-.58s-.46.26-.4,1c.11,1.17-.06,1.82-1,2a1.63,1.63,0,0,1-1.91-1.45C76.06,36.59,76.53,35.86,77.45,35.58Z"/><path d="M13.67,55.6l-.44-1.22.8-.29,1.24,3.48-.8.29L14,56.64,10.3,58l-.37-1Z"/><path d="M15.6,58.28,17,61.08l-.75.38-.93-1.83-1,.51.75,1.46-.71.36-.74-1.46L12.56,61l1,1.93-.76.38-1.47-2.89Z"/><path d="M14.57,63.44l.59.86A.79.79,0,0,0,15,65.52a.7.7,0,0,0,1,.3c.32-.22.31-.46,0-1.11-.56-1.1-.54-1.73.23-2.25a1.53,1.53,0,0,1,2.17.63,1.55,1.55,0,0,1-.17,2.3l-.57-.82a.7.7,0,0,0,.08-1c-.27-.39-.59-.46-.86-.28s-.33.41,0,1.08c.54,1,.61,1.72-.21,2.28a1.63,1.63,0,0,1-2.3-.65C13.64,64.88,13.81,64,14.57,63.44Z"/><path d="M19.79,66.4l-.86-1,.64-.56L22,67.64l-.64.56-.86-1-3,2.61L16.81,69Z"/><path d="M22.51,68.12l2.35,2.08-.56.64-1.54-1.36-.74.84,1.22,1.09-.52.59-1.23-1.09-.8.9,1.62,1.43-.56.63-2.43-2.15Z"/><path d="M25.56,70.77l1.32.87A2.21,2.21,0,0,1,27.67,75l0,0a2.24,2.24,0,0,1-3.43.59l-1.31-.86Zm-.91,4.15a1.32,1.32,0,0,0,2-.49l0-.05a1.29,1.29,0,0,0-.36-2.06L26,72.08l-1.72,2.59Z"/><path d="M33.13,79.08l.38,1.21-1.16-.46-.17-.53a1.83,1.83,0,0,1-1.4,0,1.42,1.42,0,0,1-1-1.91,1.55,1.55,0,0,1,1.51-.92,1.56,1.56,0,0,1,0-1,1.25,1.25,0,0,1,1.75-.59,1.17,1.17,0,0,1,.82,1.49,1.33,1.33,0,0,1-1.36.75l.36,1.14.71-.63.8.32ZM32,78.53l-.44-1.37a.76.76,0,0,0-.73.49.67.67,0,0,0,.43.94A.85.85,0,0,0,32,78.53Zm.32-2c.44,0,.68-.15.8-.46a.4.4,0,0,0-.23-.55.46.46,0,0,0-.64.3A1.09,1.09,0,0,0,32.27,76.56Z"/><path d="M37.54,76.46l1.42.22.66,3.13L41.17,77l1.4.21L41.83,82l-1.07-.16.52-3.34-1.83,3.14-.36-.06L38.29,78l-.52,3.34-1-.15Z"/><path d="M43.75,77.25l1.58,0a2.21,2.21,0,0,1,2.57,2.3v.06A2.24,2.24,0,0,1,45.42,82l-1.57,0Zm1.62,3.93c1,0,1.41-.57,1.39-1.57v0c0-1-.45-1.51-1.47-1.49h-.43l.06,3.11Z"/><path d="M51.39,76.6l1.38-.31,2.58,4.35-1.11.25-.56-1-1.7.37-.09,1.12-1,.22ZM52,79.49l1.24-.28-1.07-1.89Z"/><path d="M54.92,75.7l1.55-.58c1.1-.42,1.91-.17,2.27.78v0c.36,1-.13,1.66-1.16,2l-.57.21.62,1.64-1,.38Zm2.35,1.58a.7.7,0,0,0,.5-1v0c-.18-.48-.53-.56-1-.38l-.51.19.52,1.38Z"/><path d="M58.81,74.16l1.46-.78c1-.55,1.87-.41,2.35.48v0c.48.9.09,1.66-.88,2.18l-.54.29L62,77.89l-1,.51Zm2.53,1.26a.7.7,0,0,0,.37-1v0c-.25-.45-.6-.48-1.06-.24l-.48.26.69,1.3Z"/><path d="M62.45,72.15l1.4-1c.92-.67,1.77-.71,2.36.09v0a1.25,1.25,0,0,1,0,1.62l2.23.91-.94.68-2-.83-.38.27,1.09,1.51-.88.63Zm2.67.8c.44-.32.53-.67.26-1l0,0c-.28-.4-.62-.36-1,0l-.49.36.81,1.11Z"/><path d="M67.49,71.48l0,0A2.39,2.39,0,0,1,67.51,68,2.34,2.34,0,0,1,71,68l0,0a2.37,2.37,0,0,1,0,3.51A2.34,2.34,0,0,1,67.49,71.48Zm2.72-2.67,0,0a1.37,1.37,0,0,0-2.06-.19,1.35,1.35,0,0,0,.15,2.06l0,0a1.39,1.39,0,0,0,2.07.19A1.38,1.38,0,0,0,70.21,68.81Z"/><path d="M69.47,66.08l.69-.92,3.64,1.3-2.27-3.13.61-.82L75,66.68l-.75,1Z"/><path d="M72.45,62,74,59.21l.74.42-1,1.79,1,.55.8-1.44.69.39-.8,1.43,1,.58,1-1.88.74.41-1.58,2.83Z"/><path d="M74.39,58.37,75,56.9a2.21,2.21,0,0,1,3.11-1.51l0,0a2.25,2.25,0,0,1,1.33,3.22l-.56,1.47Zm4.25,0a1.32,1.32,0,0,0-.93-1.88l0,0a1.3,1.3,0,0,0-1.94.79l-.15.41,2.91,1.12Z"/></svg>