<svg id="Layer_1" data-name="Layer 1" xmlns="http://www.w3.org/2000/svg" viewBox="0 0 90 90"><path d="M47.39,45A2.39,2.39,0,1,1,45,42.61,2.4,2.4,0,0,1,47.39,45Z"/><path d="M57.4,45A2.4,2.4,0,1,1,55,42.61,2.4,2.4,0,0,1,57.4,45Z"/><path d="M67.4,45A2.4,2.4,0,1,1,65,42.61,2.4,2.4,0,0,1,67.4,45Z"/><path d="M77.4,45A2.39,2.39,0,1,1,75,42.61,2.4,2.4,0,0,1,77.4,45Z"/><path d="M37.39,45A2.4,2.4,0,1,1,35,42.61,2.4,2.4,0,0,1,37.39,45Z"/><path d="M27.39,45A2.4,2.4,0,1,1,25,42.61,2.41,2.41,0,0,1,27.39,45Z"/><path d="M17.38,45A2.39,2.39,0,1,1,15,42.61,2.4,2.4,0,0,1,17.38,45Z"/><path d="M53.76,36.23a2.39,2.39,0,1,1-3.38,0A2.4,2.4,0,0,1,53.76,36.23Z"/><path d="M60.84,29.16a2.4,2.4,0,1,1-3.38,0A2.41,2.41,0,0,1,60.84,29.16Z"/><path d="M67.91,22.09a2.39,2.39,0,1,1-3.38,0A2.39,2.39,0,0,1,67.91,22.09Z"/><path d="M45,32.6A2.4,2.4,0,1,1,42.61,35,2.4,2.4,0,0,1,45,32.6Z"/><path d="M45,22.6A2.4,2.4,0,1,1,42.61,25,2.39,2.39,0,0,1,45,22.6Z"/><path d="M45,12.6A2.39,2.39,0,1,1,42.61,15,2.39,2.39,0,0,1,45,12.6Z"/><path d="M36.23,36.24a2.39,2.39,0,1,1,0,3.38A2.4,2.4,0,0,1,36.23,36.24Z"/><path d="M29.16,29.16a2.39,2.39,0,1,1,0,3.39A2.4,2.4,0,0,1,29.16,29.16Z"/><path d="M22.08,22.09a2.39,2.39,0,1,1,0,3.38A2.39,2.39,0,0,1,22.08,22.09Z"/><path d="M45,.5A44.5,44.5,0,1,0,89.5,45,44.55,44.55,0,0,0,45,.5Zm0,86.24A41.74,41.74,0,1,1,86.74,45,41.78,41.78,0,0,1,45,86.74Z"/><polygon points="46.38 75.91 46.38 61.6 43.62 61.6 43.62 75.91 37.94 70.22 35.98 72.17 45 81.19 54.02 72.17 52.07 70.22 46.38 75.91"/><rect x="14.54" y="54.06" width="60.93" height="2.76"/><path d="M74.94,32.6a2.39,2.39,0,1,1-4.42,1.83,2.39,2.39,0,0,1,4.42-1.83Z"/><path d="M57.4,15.06a2.39,2.39,0,1,1-1.83,4.42,2.39,2.39,0,0,1,1.83-4.42Z"/><path d="M32.6,15.06a2.4,2.4,0,1,1-1.3,3.13A2.41,2.41,0,0,1,32.6,15.06Z"/><path d="M15.06,32.6a2.39,2.39,0,1,1,1.3,3.13A2.41,2.41,0,0,1,15.06,32.6Z"/><path d="M65.7,36.43a2.4,2.4,0,1,1-3.13-1.3A2.41,2.41,0,0,1,65.7,36.43Z"/><path d="M53.57,24.31a2.39,2.39,0,1,1-3.12,1.29A2.39,2.39,0,0,1,53.57,24.31Z"/><path d="M36.43,24.31a2.39,2.39,0,1,1-1.3,3.12A2.39,2.39,0,0,1,36.43,24.31Z"/><path d="M24.3,36.43a2.4,2.4,0,1,1,1.3,3.13A2.41,2.41,0,0,1,24.3,36.43Z"/></svg>