<svg id="Layer_1" data-name="Layer 1" xmlns="http://www.w3.org/2000/svg" viewBox="0 0 90 90"><path d="M45,89.5A44.5,44.5,0,1,1,89.5,45,44.55,44.55,0,0,1,45,89.5ZM45,3.26A41.74,41.74,0,1,0,86.74,45,41.78,41.78,0,0,0,45,3.26Z"/><path d="M12.55,41.21a2,2,0,1,1-2-2A2,2,0,0,1,12.55,41.21Z"/><path d="M11,30.07l.67-1.28,3.17.4-2.13-2.37.65-1.25,4.26,2.23-.5,1-3-1.57,2.37,2.75-.17.31-3.61-.38,3,1.57-.45.86Z"/><path d="M15.27,22.92l.86-1.12,4.76,1.7-.69.9L19.15,24l-1.07,1.38.65.91-.63.81Zm2.35,1.81.77-1-2-.77Z"/><path d="M18.25,19.32l.92-.87,3.5,1.07-2.16-2.31.71-.67,3.28,3.52-.79.74-3.8-1.13,2.33,2.5-.71.66Z"/><path d="M24.68,17.54l-1.6-2.45.92-.6,1.57,2.4c.43.67.82.83,1.37.47s.61-.77.13-1.5l-1.55-2.37.92-.6L28,15.31a1.81,1.81,0,0,1-.61,2.78A1.78,1.78,0,0,1,24.68,17.54Z"/><path d="M28.47,11.83l2.81-1.27.35.77-1.81.83.52,1.16,1.44-.66.34.75-1.44.65.77,1.7-1,.45Z"/><path d="M33.54,9.77l1.36-.41,2.89,4.15-1.09.33-.62-.93-1.67.51v1.12l-1,.3Zm.87,2.84,1.22-.37-1.21-1.81Z"/><path d="M38,11.05V11a2.33,2.33,0,0,1,2-2.76,1.91,1.91,0,0,1,2.36,1.44l-1.11.15a.92.92,0,0,0-1.12-.74c-.75.11-1.15.76-1,1.75v.05c.14,1,.67,1.5,1.46,1.39a1,1,0,0,0,1-1.07l1.05-.14a1.94,1.94,0,0,1-1.89,2.08A2.23,2.23,0,0,1,38,11.05Z"/><path d="M44.34,8.83l-1.3,0V8l3.69-.06,0,.85-1.3,0,.06,4-1.09,0Z"/><path d="M47.8,11l.41-2.9,1.09.15-.4,2.84c-.11.79.07,1.17.72,1.26s1-.18,1.09-1.05l.39-2.8,1.09.16-.41,2.86a1.8,1.8,0,0,1-2.28,1.69A1.78,1.78,0,0,1,47.8,11Z"/><path d="M54.31,9.11,56,9.62c1.08.33,1.63,1,1.34,1.94v0a1.26,1.26,0,0,1-1.32.93l.61,2.33-1.11-.35-.55-2.11-.45-.14L53.92,14l-1-.31Zm1,2.62q.79.24,1-.42v0c.15-.47-.09-.72-.59-.87l-.58-.18-.41,1.31Z"/><path d="M59.43,10.86l2.84,1.34-.36.76-1.86-.87-.48,1,1.49.7-.34.72-1.48-.7-.51,1.09,2,.92-.36.76-2.94-1.38Z"/><path d="M63.85,13.06l1.31.87a2.21,2.21,0,0,1,.8,3.36l0,.05a2.24,2.24,0,0,1-3.43.6l-1.31-.87Zm-.91,4.15a1.32,1.32,0,0,0,2-.49l0,0a1.3,1.3,0,0,0-.36-2.06l-.36-.24L62.57,17Z"/><path d="M70.33,18l.78.76L67.77,22.2,67,21.44Z"/><path d="M72.73,20.38l.79,1-1.34,3.41,2.48-2,.6.75-3.76,3-.68-.85L72.25,22l-2.68,2.13-.6-.75Z"/><path d="M78.06,28.29l.62,1.28L75,33.06l-.49-1,.82-.76-.76-1.57-1.11.17L73,29Zm-2.67,1.29.55,1.15,1.6-1.48Z"/><path d="M13.19,50.37l.65,3-.84.17-.41-2-1.25.26.33,1.55-.8.17L10.54,52l-1.82.39-.23-1.06Z"/><path d="M14.09,54.32l.54,1.48A2.21,2.21,0,0,1,13.29,59h0a2.25,2.25,0,0,1-3.13-1.54L9.57,56ZM10.9,57.13a1.31,1.31,0,0,0,1.94.8l.05,0A1.3,1.3,0,0,0,13.82,56l-.15-.41-2.92,1.08Z"/><path d="M16.37,59.82l.68,1.24-3.47,3.68-.54-1,.78-.8L13,61.41l-1.09.23-.49-.9Zm-2.6,1.43.61,1.11,1.52-1.55Z"/><path d="M19.5,64.77l1.12,1.3c.75.86.87,1.71.12,2.36l0,0a1.27,1.27,0,0,1-1.62.09l-.71,2.3L17.63,70l.65-2.08L18,67.52l-1.4,1.22-.71-.82Zm-.57,2.73c.36.41.71.47,1.07.17l0,0c.37-.32.3-.66,0-1.05l-.4-.47-1,.91Z"/><path d="M22.76,68.36l2.36,2-.55.64L23,69.71l-.74.84,1.24,1.08-.52.6-1.24-1.07-.78.9,1.63,1.41-.56.65L19.6,72Z"/><path d="M24.23,72.85l0,0a2.36,2.36,0,0,1,3.39-.73,1.9,1.9,0,0,1,.88,2.57l-.91-.59a.92.92,0,0,0-.42-1.25,1.37,1.37,0,0,0-2,.63l0,0c-.5.78-.53,1.56.26,2.07A1,1,0,0,0,27,75.32l-.91-.59.43-.67,1.82,1.17-.28.43a2,2,0,0,1-3.06.57A2.28,2.28,0,0,1,24.23,72.85Z"/><path d="M30.52,73.8l1,.47L29.42,78.6l-1-.47Z"/><path d="M31.37,77.87l1,.35c-.1.42,0,.82.63,1a.69.69,0,0,0,1-.34c.13-.36,0-.55-.65-.89-1.11-.56-1.46-1.08-1.15-2a1.54,1.54,0,0,1,2.13-.77,1.56,1.56,0,0,1,1.22,2l-1-.34a.7.7,0,0,0-.54-.87c-.45-.15-.75,0-.86.28s0,.53.64.87c1,.53,1.51,1,1.18,2a1.63,1.63,0,0,1-2.25.84C31.47,79.58,31.11,78.8,31.37,77.87Z"/><path d="M37.46,77.21l-1.27-.27.18-.83,3.61.77-.18.83-1.27-.27-.83,3.87-1.07-.23Z"/><path d="M40.78,77l3.12.27-.07.84-2-.17L41.69,79l1.63.13-.06.8-1.64-.14L41.52,81l2.15.18-.07.85-3.23-.28Z"/><path d="M45,77.27l1.72-.09c1.14-.06,1.88.36,1.93,1.36v0a1.24,1.24,0,0,1-.92,1.33l1.38,2-1.15.06-1.25-1.8-.47,0,.1,1.85-1.08.06Zm1.81,2.12c.54,0,.81-.27.78-.74v0c0-.49-.33-.65-.85-.62l-.61,0,.07,1.38Z"/><path d="M49.65,76.92l3.07-.59.16.84-2,.38.21,1.11,1.61-.31.15.78-1.61.31.22,1.17,2.12-.4.16.83-3.18.61Z"/><path d="M53.73,76.08l1.48-.51A2.22,2.22,0,0,1,58.37,77l0,0a2.25,2.25,0,0,1-1.61,3.1l-1.48.51Zm2.74,3.25a1.33,1.33,0,0,0,.85-1.93l0-.05a1.29,1.29,0,0,0-1.86-1l-.41.14,1,2.94Z"/><path d="M60.3,73.4,63,71.82l.43.73-1.71,1,.65,1.09,1.36-.81.42.7-1.36.81,1,1.6-.94.56Z"/><path d="M64.29,70.82l1.12-.88,4.19,2.83-.89.7-.92-.64L66.42,73.9l.4,1-.81.63Zm1.84,2.33,1-.79-1.78-1.24Z"/><path d="M68.57,70.5l0,0A2.33,2.33,0,0,1,68.4,67a1.92,1.92,0,0,1,2.74-.34l-.77.81a.92.92,0,0,0-1.34.12c-.52.55-.43,1.31.29,2l0,0c.72.69,1.46.76,2,.18a1,1,0,0,0,.1-1.43l.73-.78A2,2,0,0,1,72,70.44,2.23,2.23,0,0,1,68.57,70.5Z"/><path d="M70.55,64.65l.65-.88,3.86,2.87-.66.88Z"/><path d="M72.11,62.47l.56-.94,3.41,2,1-1.69.74.43L76.26,64.9Z"/><path d="M74,59.1l.46-1,4.36,2-.47,1Z"/><path d="M76.18,56l-.41,1.23L75,57l1.17-3.5.8.27L76.53,55l3.76,1.26-.35,1Z"/><path d="M79.14,52.55l-3,1,.24-1.17,2-.58-1.62-1.31.22-1,2.38,2,2,.42L81.17,53Z"/><path d="M77.45,41.21a2,2,0,1,0,2-2A2,2,0,0,0,77.45,41.21Z"/><polygon points="63.38 34.58 59.46 34.58 52.05 54.43 56.53 54.43 57.92 49.95 62.77 49.95 61.6 46.46 59.04 46.46 61.42 39.33 66.45 54.43 70.78 54.43 63.38 34.58"/><path d="M26.81,38.44H43.18a6.54,6.54,0,0,1,2.24.41,3.71,3.71,0,0,1,1.65,1.25,5.71,5.71,0,0,1,1,1.92,9.38,9.38,0,0,1,.3,2.62,10.52,10.52,0,0,1-.3,2.62,6,6,0,0,1-1,2.07,4.13,4.13,0,0,1-1.79,1.24,7.63,7.63,0,0,1-2.76.42H39.9V43H35.77V54.43h6.62a12,12,0,0,0,4.29-.68,8.12,8.12,0,0,0,3.16-1.92,9.2,9.2,0,0,0,2.06-3.19,12.91,12.91,0,0,0,.69-4.27c-.06-3.19-.88-5.7-2.48-7.31a8.82,8.82,0,0,0-6.42-2.48h-21V54.16h4.14V46.57h5.51V43H26.81Z"/></svg>