<svg width="99" height="159" viewBox="0 0 99 159" fill="none" xmlns="http://www.w3.org/2000/svg">
<path d="M57.2544 67.8902C57.2544 67.9804 57.2544 67.9804 57.2544 68.0706C72.5491 68.0706 84.9478 55.7163 84.9478 40.4763C84.9478 40.3861 84.9478 40.3861 84.9478 40.2959C69.6531 40.2959 57.2544 52.6502 57.2544 67.8902Z" stroke="#010101" stroke-width="4" stroke-miterlimit="10"/>
<path d="M57.5258 67.8902C57.5258 67.9804 57.5258 67.9804 57.5258 68.0706C42.231 68.0706 29.8324 55.7163 29.8324 40.4763C29.8324 40.3861 29.8324 40.3861 29.8324 40.2959C45.1271 40.2959 57.5258 52.6502 57.5258 67.8902Z" stroke="#010101" stroke-width="4" stroke-miterlimit="10"/>
<path d="M57.4352 85.1141V42.5503V85.1141Z" stroke="#010101" stroke-width="4" stroke-miterlimit="10"/>
<path d="M57.3449 42.7304L57.4354 42.8206C68.205 31.9993 68.205 14.5951 57.3449 3.77376L57.2544 3.68359C46.5752 14.5049 46.5752 31.9092 57.3449 42.7304Z" stroke="#010101" stroke-width="4" stroke-miterlimit="10"/>
<path d="M62.413 158.158L62.3225 142.467C45.1273 142.467 37.1632 133.9 31.0996 125.153L2.50119 82.7697C8.02177 77.2689 14.9904 81.6876 17.4339 84.5733L37.0727 108.741C36.0772 105.585 36.2582 102.068 37.9777 99.0017L49.4713 76.9082C56.983 79.0725 56.3494 87.2786 55.0824 90.8857L53.2724 94.4928C51.7339 97.5589 50.5574 100.445 50.1049 101.978C49.6523 103.601 49.4713 104.683 49.4713 106.577C49.4713 111.807 53.0009 115.955 57.2545 115.955C61.508 115.955 65.0376 111.717 65.0376 106.577C65.0376 104.683 64.8566 103.601 64.4041 101.978C63.9515 100.445 62.775 97.5589 61.2365 94.4928L59.4265 90.8857C58.1595 87.3688 57.526 79.0725 65.0376 76.9082L87.3009 110.094C94.179 119.833 96.17 127.047 96.17 139.04V158.248" stroke="#010101" stroke-width="4" stroke-miterlimit="10" stroke-linejoin="round"/>
</svg>
