<svg width="1050" height="381" viewBox="0 0 1050 381" fill="none" xmlns="http://www.w3.org/2000/svg">
<g clip-path="url(#clip0)">
<path d="M1015.07 28.767L1031.36 12.4448L1047.74 28.767" stroke="black" stroke-width="4" stroke-miterlimit="10"/>
<path d="M1015.07 28.3221L1031.36 12L1047.74 28.3221" stroke="black" stroke-width="4" stroke-miterlimit="10"/>
<path fill-rule="evenodd" clip-rule="evenodd" d="M210.141 103.885C210.141 46.4124 256.927 -0.196289 314.588 -0.196289C372.249 -0.196289 419.036 46.4124 419.036 103.885V277.116C419.036 332.365 464.018 377.197 519.483 377.197C574.948 377.197 619.93 332.365 619.93 277.116V103.885C619.93 46.4124 666.717 -0.196289 724.378 -0.196289C782.131 -0.196289 828.823 46.4135 828.916 103.881V103.885V277.116C828.916 332.365 873.898 377.197 929.363 377.197C984.829 377.197 1029.81 332.365 1029.81 277.116V13.2563H1033.81V277.116C1033.81 334.588 987.024 381.197 929.363 381.197C871.702 381.197 824.916 334.588 824.916 277.116V103.888V103.885C824.916 103.886 824.916 103.887 824.916 103.888L210.141 103.885ZM824.916 103.885C824.825 48.6322 779.931 3.80371 724.378 3.80371C668.912 3.80371 623.93 48.635 623.93 103.885V277.116C623.93 334.588 577.144 381.197 519.483 381.197C461.822 381.197 415.036 334.588 415.036 277.116V103.885C415.036 48.635 370.054 3.80371 314.588 3.80371C259.123 3.80371 214.141 48.635 214.141 103.885V277.116C214.141 334.588 167.354 381.197 109.693 381.197C52.0323 381.197 5.24597 334.588 5.24597 277.116V13.2563H9.24597V277.116C9.24597 332.365 54.2279 377.197 109.693 377.197C165.159 377.197 210.141 332.365 210.141 277.116V103.885" fill="#010101"/>
<path fill-rule="evenodd" clip-rule="evenodd" d="M1031.29 9.17285L1049.08 26.9055L1046.26 29.739L1031.29 14.8274L1016.42 29.7351L1013.58 26.9094L1031.29 9.17285Z" fill="black"/>
<path d="M7.24599 20.9214C10.2449 20.9214 12.6761 18.499 12.6761 15.5107C12.6761 12.5225 10.2449 10.1001 7.24599 10.1001C4.24705 10.1001 1.81592 12.5225 1.81592 15.5107C1.81592 18.499 4.24705 20.9214 7.24599 20.9214Z" fill="white"/>
<path fill-rule="evenodd" clip-rule="evenodd" d="M7.24599 12.1001C5.34485 12.1001 3.81592 13.6338 3.81592 15.5107C3.81592 17.3876 5.34485 18.9214 7.24599 18.9214C9.14713 18.9214 10.6761 17.3876 10.6761 15.5107C10.6761 13.6338 9.14713 12.1001 7.24599 12.1001ZM-0.184082 15.5107C-0.184082 11.4112 3.14924 8.1001 7.24599 8.1001C11.3427 8.1001 14.6761 11.4112 14.6761 15.5107C14.6761 19.6103 11.3427 22.9214 7.24599 22.9214C3.14924 22.9214 -0.184082 19.6103 -0.184082 15.5107Z" fill="black"/>
</g>
<defs>
<clipPath id="clip0">
<rect width="1050" height="381" fill="white"/>
</clipPath>
</defs>
</svg>
