<svg width="100" height="131" viewBox="0 0 100 131" fill="none" xmlns="http://www.w3.org/2000/svg">
<path d="M54.3824 53.3164C64.5185 58.3663 71.9397 68.8269 71.9397 81.0009C71.9397 97.8641 57.4595 111.661 41.3503 111.932H19.0869C9.85578 111.932 2.34418 119.416 2.34418 128.615H86.3293C91.3069 128.615 95.5605 125.098 96.4655 120.228C97.3705 115.449 97.823 110.579 97.823 105.71C97.823 55.7512 67.5956 32.4854 41.1692 32.4854" fill="white"/>
<path d="M54.3824 53.3164C64.5185 58.3663 71.9397 68.8269 71.9397 81.0009C71.9397 97.8641 57.4595 111.661 41.3503 111.932H19.0869C9.85578 111.932 2.34418 119.416 2.34418 128.615H86.3293C91.3069 128.615 95.5605 125.098 96.4655 120.228C97.3705 115.449 97.823 110.579 97.823 105.71C97.823 55.7512 67.5956 32.4854 41.1692 32.4854" stroke="#010101" stroke-width="4" stroke-miterlimit="10"/>
<path d="M45.1513 79.5581L78.6368 22.4757L73.4783 19.4999L78.6368 10.1214L66.1476 2.90723L60.9891 12.2857L55.8305 9.30983L22.3451 66.3922L45.1513 79.5581Z" fill="white" stroke="#010101" stroke-width="4" stroke-miterlimit="10"/>
<path d="M23.2501 77.0332L35.6488 84.067" stroke="#010101" stroke-width="4" stroke-miterlimit="10" stroke-linecap="square"/>
</svg>
