<svg width="112" height="132" viewBox="0 0 112 132" fill="none" xmlns="http://www.w3.org/2000/svg">
<path d="M71.3461 3.25886C72.4322 2.17673 74.2422 2.17673 75.3282 3.25886L108.814 36.6246C109.9 37.7067 109.9 39.5102 108.814 40.5924L52.7029 96.5024C51.6169 97.5846 49.8069 97.5846 48.7209 96.5024L15.2354 63.1368C14.1494 62.0546 14.1494 60.2511 15.2354 59.1689L71.3461 3.25886Z" stroke="#010101" stroke-width="4" stroke-miterlimit="10"/>
<path d="M11.2532 63.1368C12.3392 62.0547 14.1493 62.0547 15.2353 63.1368L48.7207 96.5025C49.8067 97.5846 49.8067 99.3881 48.7207 100.47L42.4761 106.693C41.3901 107.775 39.58 107.775 38.494 106.693L5.0086 73.3268C3.92259 72.2447 3.92259 70.4412 5.0086 69.359L11.2532 63.1368Z" stroke="#010101" stroke-width="4" stroke-miterlimit="10"/>
<path d="M29.4439 116.521H8.99058C5.28002 116.521 2.29346 119.497 2.29346 123.195C2.29346 126.892 5.28002 129.868 8.99058 129.868H29.4439C33.1544 129.868 36.141 126.892 36.141 123.195C36.141 119.497 33.1544 116.521 29.4439 116.521Z" stroke="#010101" stroke-width="4" stroke-miterlimit="10"/>
<path d="M59.581 50.963L40.9377 59.2593C37.5892 60.7923 36.0506 64.7602 37.5892 68.0967C39.1277 71.4333 43.1098 72.9663 46.4583 71.4333L65.1016 63.137C68.4501 61.6039 69.9886 57.6361 68.4501 54.2995C66.9115 50.8728 62.9296 49.43 59.581 50.963Z" stroke="#010101" stroke-width="4" stroke-miterlimit="10"/>
<path d="M64.287 40.8626L84.3784 44.7402C87.9984 45.4616 91.5279 43.117 92.2519 39.4197C92.9759 35.8126 90.6229 32.2957 86.9123 31.5743L66.8211 27.6967C63.201 26.9752 59.6714 29.3198 58.9474 33.0171C58.3139 36.6242 60.667 40.1411 64.287 40.8626Z" stroke="#010101" stroke-width="4" stroke-miterlimit="10"/>
</svg>
