<svg width="93" height="124" viewBox="0 0 93 124" fill="none" xmlns="http://www.w3.org/2000/svg">
<path d="M88.3182 96.4065L58.1813 44.2839V18.4931C62.5254 18.4931 66.0549 14.9762 66.0549 10.6477C66.0549 6.31917 62.5254 2.80225 58.1813 2.80225H35.2845C30.9404 2.80225 27.4109 6.31917 27.4109 10.6477C27.4109 14.9762 30.9404 18.4931 35.2845 18.4931V44.5544L5.23807 96.4967C2.25153 101.637 2.25153 107.949 5.23807 113.089C8.22462 118.229 13.7452 121.386 19.6278 121.386H73.9285C79.9016 121.386 85.3317 118.229 88.3182 113.089C91.3047 107.859 91.3047 101.547 88.3182 96.4065Z" fill="white" stroke="#010101" stroke-width="4" stroke-miterlimit="10"/>
<path d="M34.108 66.0166L46.7782 85.7654L79.7206 34.0938" stroke="#010101" stroke-width="4" stroke-miterlimit="10"/>
<path d="M35.2847 18.3125H46.4164" stroke="#010101" stroke-width="4" stroke-miterlimit="10"/>
<path d="M35.2847 31.3882H46.4164" stroke="#010101" stroke-width="4" stroke-miterlimit="10"/>
<path d="M35.2847 44.4639H46.4164" stroke="#010101" stroke-width="4" stroke-miterlimit="10"/>
<path d="M8.85822 90.4549C17.4558 88.6514 28.7685 92.3487 39.2666 97.6691C48.8597 102.539 57.7289 104.162 68.046 101.907C74.4716 100.465 81.1687 96.0459 85.5128 90.3648" stroke="#010101" stroke-width="4" stroke-miterlimit="10"/>
</svg>
